<?xml version="1.0" encoding="utf-8"?>
<!-- Generator: Adobe Illustrator 21.0.1, SVG Export Plug-In . SVG Version: 6.00 Build 0)  -->
<svg version="1.1" id="Layer_1" xmlns="http://www.w3.org/2000/svg" xmlns:xlink="http://www.w3.org/1999/xlink" x="0px" y="0px"
	 viewBox="0 0 512 512" style="enable-background:new 0 0 512 512;" xml:space="preserve">
<style type="text/css">
	.st0{fill:#F7B239;}
	.st1{fill:#E09B2D;}
	.st2{fill:#666666;}
	.st3{fill:#2BA5F7;}
</style>
<polygon class="st0" points="499.5,72.1 499.5,414.2 153,414.2 76,414.2 12.5,414.2 12.5,72.1 "/>
<g>
	<rect x="12.5" y="72.1" class="st0" width="119.8" height="323.4"/>
	<rect x="38.2" y="97.8" class="st1" width="435.6" height="272"/>
</g>
<polygon class="st2" points="467.4,104.2 467.4,363.4 153,363.4 76,363.4 44.6,363.4 44.6,104.2 "/>
<polygon class="st3" points="153,367.3 153,407.8 76,407.8 76,367.3 76,348.6 153,348.6 "/>
<polygon class="st3" points="103,367.3 103,407.8 76,407.8 76,367.3 76,348.6 103,348.6 "/>
<polygon class="st0" points="512,395.5 512,439.9 0,439.9 0,395.5 12.5,395.5 76,395.5 153,395.5 499.5,395.5 "/>
<polygon class="st0" points="59.2,395.5 59.2,439.9 0,439.9 0,395.5 1.4,395.5 8.8,395.5 17.7,395.5 38.2,369.8 57.8,395.5 "/>
<rect y="395.5" class="st1" width="512" height="5.1"/>
</svg>
