<?xml version="1.0" encoding="utf-8"?>
<!-- Generator: Adobe Illustrator 21.0.1, SVG Export Plug-In . SVG Version: 6.00 Build 0)  -->
<svg version="1.1" id="Layer_1" xmlns="http://www.w3.org/2000/svg" xmlns:xlink="http://www.w3.org/1999/xlink" x="0px" y="0px"
	 viewBox="0 0 512 512" style="enable-background:new 0 0 512 512;" xml:space="preserve">
<style type="text/css">
	.st0{fill:#FFE000;}
	.st1{fill:#727272;}
	.st2{fill:#00BA1A;}
	.st3{fill:#C03A2B;}
</style>
<g>
	<g>
		<path class="st0" d="M256,450.2c-2.6,0-5.1-1.1-6.9-3.3L134.4,305.7c-3.1-3.8-2.5-9.3,1.3-12.4c3.8-3.1,9.3-2.5,12.4,1.3
			l114.8,141.2c3.1,3.8,2.5,9.3-1.3,12.4C259.9,449.6,258,450.2,256,450.2"/>
		<path class="st0" d="M70.6,450.2c-1.3,0-2.7-0.3-3.9-0.9c-4.4-2.2-6.1-7.5-4-11.8l70.6-141.2c2.2-4.4,7.5-6.1,11.8-4
			c4.4,2.2,6.1,7.5,4,11.8L78.5,445.3C77,448.4,73.9,450.2,70.6,450.2"/>
		<path class="st0" d="M256,450.2c-2,0-3.9-0.6-5.6-2c-3.8-3.1-4.4-8.6-1.3-12.4l114.8-141.2c3.1-3.8,8.6-4.3,12.4-1.3
			c3.8,3.1,4.4,8.6,1.3,12.4L262.8,447C261.1,449.1,258.6,450.2,256,450.2"/>
		<path class="st0" d="M441.4,450.2c-3.2,0-6.4-1.8-7.9-4.9l-70.6-141.2c-2.2-4.4-0.4-9.7,4-11.8c4.4-2.2,9.7-0.4,11.8,4l70.6,141.2
			c2.2,4.4,0.4,9.7-4,11.8C444.1,449.9,442.7,450.2,441.4,450.2"/>
		<path class="st0" d="M123.6,220.7c-2.4,0-4.7-0.9-6.5-2.8c-3.3-3.6-3.1-9.2,0.4-12.5L250,81.8c3.6-3.3,9.1-3.1,12.5,0.4
			c3.3,3.6,3.1,9.2-0.4,12.5L129.6,218.3C127.9,219.9,125.7,220.7,123.6,220.7"/>
		<path class="st0" d="M388.4,220.7c-2.2,0-4.3-0.8-6-2.4L250,94.7c-3.6-3.3-3.8-8.9-0.4-12.5c3.3-3.6,8.9-3.7,12.5-0.4l132.4,123.6
			c3.6,3.3,3.8,8.9,0.4,12.5C393.1,219.8,390.8,220.7,388.4,220.7"/>
	</g>
	<g>
		<polygon class="st1" points="17.7,512 123.6,512 123.6,441.4 17.7,441.4 		"/>
		<polygon class="st1" points="203,512 309,512 309,441.4 203,441.4 		"/>
		<polygon class="st1" points="388.4,512 494.3,512 494.3,441.4 388.4,441.4 		"/>
	</g>
	<polygon class="st2" points="35.3,300.1 229.5,300.1 229.5,211.9 35.3,211.9 	"/>
	<polygon class="st3" points="158.9,88.3 353.1,88.3 353.1,0 158.9,0 	"/>
	<polygon class="st2" points="282.5,300.1 476.7,300.1 476.7,211.9 282.5,211.9 	"/>
</g>
</svg>
