<?xml version="1.0" encoding="utf-8"?>
<!-- Generator: Adobe Illustrator 21.0.1, SVG Export Plug-In . SVG Version: 6.00 Build 0)  -->
<svg version="1.1" id="Layer_1" xmlns="http://www.w3.org/2000/svg" xmlns:xlink="http://www.w3.org/1999/xlink" x="0px" y="0px"
	 viewBox="0 0 512 512" style="enable-background:new 0 0 512 512;" xml:space="preserve">
<style type="text/css">
	.st0{fill:#00C7E2;}
	.st1{fill:#FFFFFF;stroke:#00C7E2;stroke-width:19;stroke-miterlimit:10;}
</style>
<g>
	<g>
		<path class="st0" d="M256,450.2c-2.6,0-5.1-1.1-6.9-3.3L134.4,305.7c-3.1-3.8-2.5-9.3,1.3-12.4s9.3-2.5,12.4,1.3l114.8,141.2
			c3.1,3.8,2.5,9.3-1.3,12.4C259.9,449.6,258,450.2,256,450.2"/>
		<path class="st0" d="M70.6,450.2c-1.3,0-2.7-0.3-3.9-0.9c-4.4-2.2-6.1-7.5-4-11.8l70.6-141.2c2.2-4.4,7.5-6.1,11.8-4
			c4.4,2.2,6.1,7.5,4,11.8L78.5,445.3C77,448.4,73.9,450.2,70.6,450.2"/>
		<path class="st0" d="M256,450.2c-2,0-3.9-0.6-5.6-2c-3.8-3.1-4.4-8.6-1.3-12.4l114.8-141.2c3.1-3.8,8.6-4.3,12.4-1.3
			c3.8,3.1,4.4,8.6,1.3,12.4L262.8,447C261.1,449.1,258.6,450.2,256,450.2"/>
		<path class="st0" d="M441.4,450.2c-3.2,0-6.4-1.8-7.9-4.9l-70.6-141.2c-2.2-4.4-0.4-9.7,4-11.8c4.4-2.2,9.7-0.4,11.8,4l70.6,141.2
			c2.2,4.4,0.4,9.7-4,11.8C444.1,449.9,442.7,450.2,441.4,450.2"/>
		<path class="st0" d="M123.6,220.7c-2.4,0-4.7-0.9-6.5-2.8c-3.3-3.6-3.1-9.2,0.4-12.5L250,81.8c3.6-3.3,9.1-3.1,12.5,0.4
			c3.3,3.6,3.1,9.2-0.4,12.5L129.6,218.3C127.9,219.9,125.7,220.7,123.6,220.7"/>
		<path class="st0" d="M388.4,220.7c-2.2,0-4.3-0.8-6-2.4L250,94.7c-3.6-3.3-3.8-8.9-0.4-12.5c3.3-3.6,8.9-3.7,12.5-0.4l132.4,123.6
			c3.6,3.3,3.8,8.9,0.4,12.5C393.1,219.8,390.8,220.7,388.4,220.7"/>
	</g>
	<g>
		<path class="st0" d="M35.1,512h71.1c9.6,0,17.4-7.8,17.4-17.4v-35.8c0-9.6-7.8-17.4-17.4-17.4H35.1c-9.6,0-17.4,7.8-17.4,17.4
			v35.8C17.7,504.2,25.5,512,35.1,512z"/>
		<path class="st0" d="M220.6,512h70.8c9.7,0,17.6-7.9,17.6-17.6V459c0-9.7-7.9-17.6-17.6-17.6h-70.8c-9.7,0-17.6,7.9-17.6,17.6
			v35.4C203,504.1,210.9,512,220.6,512z"/>
		<path class="st0" d="M405.1,512h72.4c9.2,0,16.7-7.5,16.7-16.7v-37.1c0-9.2-7.5-16.7-16.7-16.7h-72.4c-9.2,0-16.7,7.5-16.7,16.7
			v37.1C388.4,504.5,395.9,512,405.1,512z"/>
	</g>
	<path class="st1" d="M55.5,300.1h153.8c11.2,0,20.2-9,20.2-20.2v-47.8c0-11.2-9-20.2-20.2-20.2H55.5c-11.2,0-20.2,9-20.2,20.2v47.8
		C35.3,291.1,44.3,300.1,55.5,300.1z"/>
	<path class="st0" d="M176.2,88.3h159.5c9.6,0,17.3-7.8,17.3-17.3V17.3c0-9.6-7.8-17.3-17.3-17.3H176.2c-9.6,0-17.3,7.8-17.3,17.3
		V71C158.9,80.5,166.7,88.3,176.2,88.3z"/>
	<path class="st1" d="M301.1,300.1h157c10.3,0,18.6-8.3,18.6-18.6v-51c0-10.3-8.3-18.6-18.6-18.6h-157c-10.3,0-18.6,8.3-18.6,18.6
		v51C282.5,291.8,290.8,300.1,301.1,300.1z"/>
</g>
</svg>
