<?xml version="1.0" encoding="utf-8"?>
<!-- Generator: Adobe Illustrator 21.0.1, SVG Export Plug-In . SVG Version: 6.00 Build 0)  -->
<svg version="1.1" xmlns="http://www.w3.org/2000/svg" xmlns:xlink="http://www.w3.org/1999/xlink" x="0px" y="0px"
	 viewBox="0 0 1920 1080" style="enable-background:new 0 0 1920 1080;" xml:space="preserve">
<style type="text/css">
	.st0{display:none;}
	.st1{opacity:0.5;}
	.st2{opacity:0.71;fill:#F49E21;stroke:#ED7600;stroke-miterlimit:10;}
	.st3{fill:#F49E21;stroke:#ED7600;stroke-miterlimit:10;}
	.st4{opacity:0.6;fill:#F49E21;stroke:#ED7600;stroke-miterlimit:10;}
	.st5{opacity:0.5;fill:#F49E21;stroke:#ED7600;stroke-miterlimit:10;}
	.st6{opacity:0.4;fill:#F49E21;stroke:#ED7600;stroke-miterlimit:10;}
	.st7{opacity:0.26;fill:#F49E21;stroke:#ED7600;stroke-miterlimit:10;}
	.st8{opacity:0.6;}
	.st9{opacity:0.4;}
	.st10{opacity:0.71;}
	.st11{fill:#F1EFF0;}
	.st12{fill-rule:evenodd;clip-rule:evenodd;fill:#D48200;stroke:#FFFFFF;stroke-width:0.6233;}
	.st13{fill-rule:evenodd;clip-rule:evenodd;fill:#FFFFFF;}
	.st14{fill:none;stroke:#211915;stroke-width:0.1795;stroke-linecap:round;stroke-linejoin:round;stroke-miterlimit:22.9256;}
	.st15{fill:none;stroke:#211915;stroke-width:0.1896;stroke-linecap:round;stroke-linejoin:round;stroke-miterlimit:22.9256;}
	
		.st16{fill-rule:evenodd;clip-rule:evenodd;fill:#FFFFFF;stroke:#211915;stroke-width:0.1896;stroke-linejoin:round;stroke-miterlimit:22.9256;}
	.st17{fill-rule:evenodd;clip-rule:evenodd;fill:#211915;stroke:#211915;stroke-width:0.1795;stroke-miterlimit:22.9256;}
	
		.st18{fill-rule:evenodd;clip-rule:evenodd;fill:#211915;stroke:#211915;stroke-width:0.1795;stroke-linejoin:round;stroke-miterlimit:22.9256;}
	
		.st19{fill-rule:evenodd;clip-rule:evenodd;fill:#FFFFFF;stroke:#211915;stroke-width:0.1795;stroke-linejoin:round;stroke-miterlimit:22.9256;}
	.st20{fill-rule:evenodd;clip-rule:evenodd;fill:#FFFFFF;stroke:#211915;stroke-width:0.1795;stroke-miterlimit:22.9256;}
	.st21{fill:none;stroke:#211915;stroke-width:0.1795;stroke-miterlimit:22.9256;}
	.st22{fill:none;stroke:#211915;stroke-width:0.1896;stroke-miterlimit:22.9256;}
	.st23{fill-rule:evenodd;clip-rule:evenodd;fill:#211915;}
	.st24{fill:#211915;}
	.st25{fill:#FFFFFF;stroke:#668599;stroke-miterlimit:10;}
	.st26{fill:#E57D00;stroke:#668599;stroke-miterlimit:10;}
	.st27{fill:#FFFFFF;}
	.st28{display:none;fill:none;}
	.st29{fill:#F1EFF0;stroke:#668599;stroke-miterlimit:10;}
	.st30{fill:#232323;}
	.st31{fill:#5E5E5E;}
	.st32{fill:#6B6B6B;}
	.st33{fill:#FE5B0E;}
	.st34{fill:#FF9400;}
	.st35{fill:#CECECE;}
	.st36{fill:#82969F;}
	.st37{fill:#668599;}
	.st38{fill:#4B6F8B;}
</style>
<g id="Guides" class="st0">
</g>
<g id="lowpolylayer" class="st1">
	<g class="st1">
		<g>
			<polygon class="st2" points="1474.2,-219.4 1416.8,103.1 1909.1,78.6 			"/>
		</g>
		<g>
			<polygon class="st3" points="1474,-219.3 1908.9,78.7 1929.7,-193.1 			"/>
		</g>
		<g>
			<polygon class="st3" points="1474.4,-219.3 1245.9,-193.1 1417,103.2 			"/>
		</g>
	</g>
	<g class="st1">
		<g>
			<polygon class="st2" points="2176.8,170.6 1930.6,-192.1 1909.8,79.7 			"/>
		</g>
		<g class="st1">
			<polygon class="st3" points="2176.8,170.3 1909.8,79.5 1930.6,400.2 			"/>
		</g>
	</g>
	<g class="st1">
		<g>
			<polygon class="st6" points="-370.7,240.1 -78.2,569.1 75.1,144.9 			"/>
		</g>
		<g>
			<polygon class="st4" points="-370.7,240.4 75.1,145.1 -210.4,-115.1 			"/>
		</g>
	</g>
	<g class="st1">
		<g class="st8">
			<polygon class="st3" points="-294.9,739.2 -122.3,1122.8 50.4,823.8 			"/>
		</g>
		<g>
			<polygon class="st3" points="-294.9,739.4 50.4,824.1 -78.2,567.4 			"/>
		</g>
	</g>
	<g class="st1">
		<g>
			<polygon class="st6" points="121,576 311.3,788.6 466.3,576 			"/>
			<polygon class="st2" points="121.4,576.2 -26.5,194.3 -179.8,618.6 			"/>
		</g>
	</g>
	<g class="st1">
		<g>
			<polygon class="st3" points="222,1040.6 47.6,1424.3 392.9,1424.3 			"/>
			<polygon class="st6" points="222,1041.1 410.5,740.3 47.6,826.7 			"/>
		</g>
		<g>
			<polygon class="st3" points="221.8,1040.7 392.7,1424.4 565.3,1125.4 			"/>
			<polygon class="st2" points="222.2,1041 47.8,826.6 -124.8,1125.6 			"/>
		</g>
		<g>
			<polygon class="st5" points="221.8,1041 565.3,1125.6 410.3,740.2 			"/>
			<polygon class="st6" points="222.2,1040.7 -124.8,1125.4 47.8,1424.4 			"/>
		</g>
	</g>
	<g class="st1">
		<g>
			<polygon class="st6" points="1709.2,-66.8 1452.9,159.8 1777.3,268.4 			"/>
		</g>
		<g>
			<polygon class="st4" points="1709,-66.8 1777.1,268.5 1944.3,87.6 			"/>
		</g>
		<g>
			<polygon class="st3" points="1708.9,-66.5 1944.3,87.8 2046.5,-404.1 			"/>
			<polygon class="st2" points="1709.3,-66.6 1428.7,-250.9 1453.1,160 			"/>
		</g>
	</g>
	<g class="st1">
		<g>
			<polygon class="st2" points="651,922.4 515.1,1220.4 998.1,1319.1 			"/>
		</g>
		<g>
			<polygon class="st3" points="650.7,922.4 997.9,1319.2 1085.6,1061.1 			"/>
			<line class="st3" x1="423.2" y1="891.3" x2="651.1" y2="922.7"/>
		</g>
		<g>
			<line class="st3" x1="650.7" y1="922.6" x2="1085.5" y2="1061.3"/>
			<polygon class="st3" points="651.1,922.5 423.2,891.1 515.3,1220.6 			"/>
		</g>
	</g>
	<g class="st1">
		<g>
			<polygon class="st2" points="906.4,-35 801.7,154.7 1051.2,179.1 			"/>
		</g>
		<g>
			<polygon class="st3" points="906.2,-34.9 1051,179.3 1222.1,-117 			"/>
		</g>
		<g>
			<polygon class="st6" points="906.6,-34.9 538.3,-117 801.9,154.8 			"/>
		</g>
	</g>
	<g class="st1">
		<g>
			<polygon class="st6" points="423,1296.1 686.6,1036.5 251.9,999.8 			"/>
		</g>
		<g>
			<polygon class="st3" points="423.2,1296 252.1,999.7 81.1,1296 			"/>
		</g>
	</g>
	<g class="st1">
		<g>
			<polygon class="st4" points="1471,1300 1532,1026.5 1224.8,937.4 			"/>
		</g>
		<g>
			<polygon class="st2" points="1471.2,1299.9 1225,937.3 1204.2,1209.1 			"/>
		</g>
		<g class="st1">
			<polygon class="st3" points="1470.8,1299.9 1753.5,1170.6 1531.8,1026.4 			"/>
		</g>
	</g>
	<g class="st1">
		<g>
			<polygon class="st3" points="1737.2,1159.1 1828.9,894.2 1486.3,1075.3 			"/>
		</g>
		<g>
			<polygon class="st3" points="1737,1159.1 2068.7,1137.9 1828.6,894.1 			"/>
		</g>
	</g>
	<g class="st1">
		<g>
			<polygon class="st2" points="844.6,1275.2 1268.7,1055.9 881.3,935.1 			"/>
		</g>
		<g>
			<polygon class="st3" points="844.8,1275.2 881.5,935.1 633.2,1014.5 			"/>
		</g>
		<g>
			<polygon class="st3" points="844.5,1275 1022,1493.4 1268.6,1055.7 			"/>
			<polygon class="st2" points="844.9,1275 633.4,1014.4 532,1413.3 			"/>
		</g>
	</g>
	<g class="st1">
		<g>
			<polygon class="st4" points="1243.9,850.2 881.4,934.9 1268.8,1055.7 			"/>
		</g>
		<g>
			<polygon class="st3" points="1243.7,850.2 1268.6,1055.7 1500.1,1061.4 			"/>
		</g>
		<g>
			<line class="st3" x1="1243.6" y1="850.3" x2="1499.9" y2="1061.5"/>
			<line class="st3" x1="881.5" y1="935.1" x2="1244" y2="850.4"/>
		</g>
	</g>
	<g class="st1">
		<g class="st1">
			<polygon class="st3" points="1785.1,864.8 1501.9,1066 1748.3,1204.9 			"/>
		</g>
		<g>
			<polygon class="st6" points="1784.8,864.8 1748.1,1204.9 2107.2,1065.7 			"/>
		</g>
		<g>
			<line class="st3" x1="1784.7" y1="865" x2="2107" y2="1065.9"/>
			<line class="st4" x1="1502" y1="1066.2" x2="1785.2" y2="865"/>
		</g>
	</g>
	<g class="st1">
		<g>
			<polygon class="st3" points="1431.9,1316 1744.8,1177.8 1498.4,1038.8 			"/>
		</g>
		<g>
			<polygon class="st3" points="1432.2,1316.1 1498.7,1038.8 1267.1,1033.1 			"/>
		</g>
		<g>
			<polygon class="st7" points="1432.3,1315.9 1267.3,1033 1020.7,1470.7 			"/>
		</g>
	</g>
	<g class="st1">
		<g>
		</g>
		<g>
			<polygon class="st5" points="1939.2,1344.7 2106,1036.9 1747,1176.1 			"/>
		</g>
	</g>
	<g class="st1">
		<g>
			<polygon class="st2" points="1128,-153.9 768.7,47.8 1044.9,249.7 			"/>
		</g>
		<g class="st9">
			<polygon class="st3" points="1127.8,-153.9 1044.7,249.7 1357.6,111.4 			"/>
		</g>
		<g class="st8">
			<polygon class="st3" points="1127.7,-153.8 1357.5,111.6 1394.2,-228.5 			"/>
			<polygon class="st3" points="1128.1,-153.7 805.5,-292.1 768.8,48 			"/>
		</g>
	</g>
	<g class="st1">
		<g>
			<polygon class="st2" points="701.2,-290.4 643.8,32.1 1136.1,7.6 			"/>
		</g>
		<g>
			<polygon class="st3" points="701,-290.3 1135.9,7.7 1156.7,-264.1 			"/>
		</g>
		<g>
			<polygon class="st3" points="701.4,-290.3 472.9,-264.1 644,32.2 			"/>
		</g>
	</g>
	<g class="st1">
		<g>
			<polygon class="st2" points="133.4,-106 28.7,83.7 278.2,108.1 			"/>
		</g>
		<g>
			<polygon class="st3" points="133.2,-105.9 278,108.3 449.1,-188 			"/>
		</g>
		<g>
			<polygon class="st6" points="133.6,-105.9 -234.7,-188 28.9,83.8 			"/>
		</g>
	</g>
	<g class="st1">
		<g>
			<polygon class="st2" points="355,-224.9 -4.3,-23.2 271.9,178.7 			"/>
		</g>
		<g class="st9">
			<polygon class="st3" points="354.8,-224.9 271.7,178.7 584.6,40.4 			"/>
		</g>
		<g class="st8">
			<polygon class="st3" points="354.7,-224.8 584.5,40.6 621.2,-299.5 			"/>
		</g>
	</g>
	<g>
		<g class="st1">
			<g>
				<polygon class="st5" points="-197.3,470.1 2.1,591.4 -134.9,311.1 				"/>
			</g>
			<g>
				<polygon class="st3" points="-197.3,469.9 -179.2,683.3 2.1,591.2 				"/>
			</g>
		</g>
		<g class="st1">
			<g>
				<polygon class="st2" points="65.7,263.5 -136.2,310.5 0.8,590.7 				"/>
				<polygon class="st3" points="65.4,263.6 293.5,361.8 208.2,162.9 				"/>
			</g>
			<g>
				<polygon class="st3" points="65.6,263.4 0.7,590.6 163.9,535 				"/>
				<polygon class="st3" points="65.6,263.7 208.3,162.9 -6.7,137.3 				"/>
			</g>
			<g>
				<polygon class="st3" points="65.5,263.5 163.8,535 293.5,361.7 				"/>
				<polygon class="st3" points="65.7,263.6 -6.5,137.3 -136.2,310.6 				"/>
			</g>
		</g>
		<g class="st1">
			<g>
				<polygon class="st7" points="14.2,769.1 -180.9,683.3 -93.8,945.2 				"/>
				<polygon class="st4" points="13.9,769.2 188.2,736.5 163.5,535.7 				"/>
			</g>
			<g>
				<polygon class="st4" points="14.1,769.1 -93.9,945.1 159.8,901.2 				"/>
				<polygon class="st2" points="14.1,769.3 163.6,535.7 0.3,591.4 				"/>
			</g>
			<g class="st1">
				<polygon class="st3" points="14,769.1 159.6,901.3 188.3,736.4 				"/>
				<polygon class="st3" points="14.2,769.3 0.5,591.4 -180.9,683.4 				"/>
			</g>
		</g>
		<g class="st1">
			<g>
				<polygon class="st2" points="161.3,904.6 -92.4,948.5 -8.9,1084.4 				"/>
				<polygon class="st3" points="161,904.7 335.5,936.8 189.6,739.8 				"/>
			</g>
			<g>
				<polygon class="st3" points="161.2,904.5 -9,1084.4 205.9,1110 				"/>
			</g>
			<g>
				<polygon class="st3" points="161,904.5 205.8,1110 335.5,936.7 				"/>
			</g>
		</g>
	</g>
</g>
<g id="Main">
</g>
<g id="Planes_de_estudio">
</g>
<g id="dgradado_copia_2">
</g>
</svg>
