<?xml version="1.0" encoding="utf-8"?>
<!-- Generator: Adobe Illustrator 21.0.1, SVG Export Plug-In . SVG Version: 6.00 Build 0)  -->
<svg version="1.1" id="Layer_1" xmlns="http://www.w3.org/2000/svg" xmlns:xlink="http://www.w3.org/1999/xlink" x="0px" y="0px"
	 viewBox="0 0 512 512" style="enable-background:new 0 0 512 512;" xml:space="preserve">
<style type="text/css">
	.st0{fill:#25B99A;}
	.st1{fill:#199172;}
	.st2{fill:#E0E2E3;}
	.st3{fill:#EDEBDA;}
	.st4{fill:#FFFFFF;}
	.st5{fill:#00C7E2;}
	.st6{fill:#FFFFFF;stroke:#00C7E2;stroke-width:7;stroke-miterlimit:10;}
	.st7{fill:#FFFFFF;stroke:#00C7E2;stroke-linecap:round;stroke-miterlimit:10;}
	.st8{fill:none;stroke:#00C7E2;stroke-linecap:round;stroke-miterlimit:10;}
</style>
<g>
	<path class="st0" d="M1067.4-201H685.3c-14.7,0-26.6,11.9-26.6,26.5v92.3c-20.2,0-36.6,16.4-36.6,36.6c0,11,4.9,20.7,12.6,27.4
		c-7.7,6.7-12.6,16.4-12.6,27.4s4.9,20.7,12.6,27.4C627,43.3,622.1,53,622.1,64s4.9,20.7,12.6,27.4c-7.7,6.7-12.6,16.4-12.6,27.4
		c0,20.2,16.4,36.6,36.6,36.6v109.7c0-25.2,20.5-45.7,45.7-45.7h393.1v-390.3C1097.6-187.5,1084.1-201,1067.4-201"/>
	<g>
		<path class="st1" d="M731.9-201h-46.6c-14.7,0-26.6,11.9-26.6,26.5v92.3c-20.2,0-36.6,16.4-36.6,36.6c0,11,4.9,20.7,12.6,27.4
			c-7.7,6.7-12.6,16.4-12.6,27.4s4.9,20.7,12.6,27.4C627,43.3,622.1,53,622.1,64s4.9,20.7,12.6,27.4c-7.7,6.7-12.6,16.4-12.6,27.4
			c0,20.2,16.4,36.6,36.6,36.6v109.7c0-25.2,20.5-45.7,45.7-45.7h27.4L731.9-201L731.9-201z"/>
		<path class="st1" d="M1097.6,311H704.4c-25.2,0-45.7-20.5-45.7-45.7l0,0c0-25.2,20.5-45.7,45.7-45.7h393.1L1097.6,311L1097.6,311z
			"/>
	</g>
	<g>
		<path class="st0" d="M741,274.4h-45.7c-5,0-9.1-4.1-9.1-9.1s4.1-9.1,9.1-9.1H741c5,0,9.1,4.1,9.1,9.1S746.1,274.4,741,274.4"/>
		<path class="st0" d="M987.9,274.4H777.6c-5,0-9.1-4.1-9.1-9.1s4.1-9.1,9.1-9.1h210.3c5,0,9.1,4.1,9.1,9.1S992.9,274.4,987.9,274.4
			"/>
	</g>
	<g>
		<path class="st2" d="M658.7,164.7c-25.2,0-45.7-20.5-45.7-45.7s20.5-45.7,45.7-45.7s45.7,20.5,45.7,45.7c0,5.1-4.1,9.1-9.1,9.1
			s-9.1-4.1-9.1-9.1c0-15.1-12.3-27.4-27.4-27.4c-15.1,0-27.5,12.3-27.5,27.4s12.3,27.4,27.4,27.4c5,0,9.1,4.1,9.1,9.1
			S663.8,164.7,658.7,164.7"/>
		<path class="st2" d="M634.8,103.7l-6-5.3c-10-8.8-15.7-21.3-15.7-34.3c0-25.2,20.5-45.7,45.7-45.7c25.2,0,45.7,20.5,45.7,45.7
			c0,5.1-4.1,9.1-9.1,9.1c-5.1,0-9.1-4.1-9.1-9.1c0-15.1-12.3-27.4-27.4-27.4c-15.3,0-27.6,12.3-27.6,27.4c0,5.5,1.7,10.8,4.8,15.3
			c16.4-9.5,38.1-7.5,52.6,5.2c3.8,3.3,4.2,9.1,0.9,12.9c-3.3,3.8-9.1,4.2-12.9,0.9c-3.6-3.1-9.6-6.9-17.9-6.9
			c-8.3,0-14.4,3.7-17.9,6.9L634.8,103.7z"/>
		<path class="st2" d="M634.8,48.9l-6-5.3c-10-8.8-15.7-21.3-15.7-34.3c0-25.2,20.5-45.7,45.7-45.7c25.2,0,45.7,20.5,45.7,45.7
			c0,5.1-4.1,9.1-9.1,9.1c-5.1,0-9.1-4.1-9.1-9.1c0-15.1-12.3-27.4-27.4-27.4S631.5-5.8,631.5,9.3c0,5.5,1.7,10.8,4.8,15.3
			c16.4-9.5,38.1-7.4,52.6,5.2c3.8,3.3,4.2,9.1,0.9,12.9c-3.3,3.8-9.1,4.2-12.9,0.9c-3.6-3.1-9.6-6.9-17.9-6.9s-14.4,3.7-17.9,6.9
			L634.8,48.9z"/>
		<path class="st2" d="M634.8-6l-6-5.3c-10-8.8-15.7-21.3-15.7-34.3c0-25.2,20.5-45.7,45.7-45.7c25.2,0,45.7,20.5,45.7,45.7
			c0,5.1-4.1,9.1-9.1,9.1c-5.1,0-9.1-4.1-9.1-9.1c0-15.1-12.3-27.4-27.4-27.4c-15.3,0-27.6,12.3-27.6,27.4c0,5.5,1.7,10.8,4.8,15.3
			c16.4-9.5,38.1-7.5,52.6,5.2c3.8,3.3,4.2,9.1,0.9,12.9c-3.3,3.8-9.1,4.2-12.9,0.9c-3.6-3.1-9.6-6.9-17.9-6.9
			c-8.3,0-14.4,3.7-17.9,6.9L634.8-6z"/>
		<path class="st2" d="M658.7,164.7c-5,0-9.1-4.1-9.1-9.1v-27.4c0-5.1,4.1-9.1,9.1-9.1s9.1,4.1,9.1,9.1v27.4
			C667.9,160.6,663.8,164.7,658.7,164.7"/>
	</g>
	<path class="st3" d="M1030.5-27.3H798.9c-6.7,0-12.2-5.5-12.2-12.2v-85.3c0-6.7,5.5-12.2,12.2-12.2h231.6c6.7,0,12.2,5.5,12.2,12.2
		v85.3C1042.7-32.7,1037.3-27.3,1030.5-27.3"/>
	<g>
		<path class="st1" d="M969.6,137.3H859.9c-5,0-9.1-4.1-9.1-9.1s4.1-9.1,9.1-9.1h109.7c5,0,9.1,4.1,9.1,9.1S974.6,137.3,969.6,137.3
			"/>
		<path class="st1" d="M1006.2,173.9H823.3c-5,0-9.1-4.1-9.1-9.1s4.1-9.1,9.1-9.1h182.9c5,0,9.1,4.1,9.1,9.1
			S1011.2,173.9,1006.2,173.9"/>
	</g>
	<g>
		<path class="st0" d="M1061,237.9c-5,0-9.1,4.1-9.1,9.1s4.1,9.1,9.1,9.1h36.6v-18.3L1061,237.9L1061,237.9z"/>
		<path class="st0" d="M1061,274.4c-5,0-9.1,4.1-9.1,9.1s4.1,9.1,9.1,9.1h36.6v-18.3L1061,274.4L1061,274.4z"/>
	</g>
</g>
<g>
	<g>
		<g>
			<g>
				<line class="st4" x1="256" y1="416.9" x2="256" y2="336.4"/>
				<path class="st5" d="M256,431.7c-8.2,0-14.9-6.7-14.9-14.9v-80.4c0-8.2,6.7-14.9,14.9-14.9c8.2,0,14.9,6.7,14.9,14.9v80.4
					C270.9,425.1,264.2,431.7,256,431.7z"/>
			</g>
			<g>
				<line class="st4" x1="146.3" y1="472.2" x2="256" y2="414.8"/>
				<path class="st5" d="M146.3,487.1c-5.4,0-10.5-2.9-13.2-8c-3.8-7.3-1-16.3,6.3-20.1l109.7-57.4c7.3-3.8,16.3-1,20.1,6.3
					c3.8,7.3,1,16.3-6.3,20.1l-109.7,57.4C151,486.6,148.6,487.1,146.3,487.1z"/>
			</g>
			<g>
				<line class="st4" x1="371.9" y1="472.2" x2="262.2" y2="414.8"/>
				<path class="st5" d="M371.9,487.1c-2.3,0-4.7-0.5-6.9-1.7L255.3,428c-7.3-3.8-10.1-12.8-6.3-20.1c3.8-7.3,12.8-10.1,20.1-6.3
					l109.7,57.4c7.3,3.8,10.1,12.8,6.3,20.1C382.4,484.2,377.2,487.1,371.9,487.1z"/>
			</g>
		</g>
		<path class="st6" d="M453.1,336.4H256H58.9c-14,0-25.4-11.4-25.4-25.4V66.7c0-14,11.4-25.4,25.4-25.4h394.2
			c14,0,25.4,11.4,25.4,25.4V311C478.5,325,467.1,336.4,453.1,336.4z"/>
		<g>
			<rect x="63.6" y="91.1" class="st7" width="179.7" height="204.1"/>
			<rect x="63.6" y="91.1" class="st7" width="60.1" height="204.1"/>
			<rect x="123.4" y="91.4" class="st7" width="119.9" height="204.1"/>
			<rect x="63.6" y="91.4" class="st8" width="179.7" height="34.1"/>
			<rect x="63.6" y="127.8" class="st8" width="179.7" height="34.1"/>
			<rect x="63.6" y="164.2" class="st8" width="179.7" height="34.1"/>
			<rect x="63.6" y="198.3" class="st8" width="179.7" height="34.1"/>
			<rect x="63.6" y="234.7" class="st8" width="179.7" height="34.1"/>
		</g>
		<g>
			<rect x="274.2" y="91.3" class="st7" width="179.7" height="204.1"/>
			<rect x="274.2" y="91.3" class="st7" width="60.1" height="204.1"/>
			<rect x="334" y="91.6" class="st7" width="119.9" height="204.1"/>
			<rect x="274.2" y="91.6" class="st8" width="179.7" height="34.1"/>
			<rect x="274.2" y="128" class="st8" width="179.7" height="34.1"/>
			<rect x="274.2" y="164.4" class="st8" width="179.7" height="34.1"/>
			<rect x="274.2" y="198.5" class="st8" width="179.7" height="34.1"/>
			<rect x="274.2" y="234.9" class="st8" width="179.7" height="34.1"/>
		</g>
	</g>
	<path class="st5" d="M492.9,65.5H19.1C8.6,65.5,0,56.9,0,46.4L0,44c0-10.5,8.6-19.1,19.1-19.1h473.8c10.5,0,19.1,8.6,19.1,19.1v2.4
		C512,56.9,503.4,65.5,492.9,65.5z"/>
</g>
</svg>
