<?xml version="1.0" encoding="utf-8"?>
<!-- Generator: Adobe Illustrator 21.0.1, SVG Export Plug-In . SVG Version: 6.00 Build 0)  -->
<svg version="1.1" id="Capa_1" xmlns="http://www.w3.org/2000/svg" xmlns:xlink="http://www.w3.org/1999/xlink" x="0px" y="0px"
	 viewBox="0 0 55.1 55.1" style="enable-background:new 0 0 55.1 55.1;" xml:space="preserve">
<style type="text/css">
	.st0{fill:#00C7E2;}
</style>
<g>
	<g>
		<path class="st0" d="M53.6,41.9c-1.9-3.6-8.9-7.7-8.9-7.7c-1.6-0.9-3.5-1-4.4,0.6c0,0-2.3,2.7-2.9,3.1c-2.6,1.8-5.1,1.7-7.6-0.8
			l-5.7-5.7l-5.7-5.7c-2.5-2.5-2.5-4.9-0.8-7.6c0.4-0.6,3.1-2.9,3.1-2.9c1.6-0.9,1.5-2.8,0.6-4.4c0,0-4.1-7-7.7-8.9
			c-1.5-0.8-3.4-0.5-4.6,0.7L6.5,5.3c-8,8-4.1,17.1,4,25.2l7.4,7.4l7.4,7.4c8,8,17.1,12,25.2,4l2.5-2.5
			C54.1,45.3,54.4,43.5,53.6,41.9z"/>
		<path class="st0" d="M54.5,41.5c-2-3.8-9-7.9-9.3-8.1c-0.9-0.5-1.8-0.8-2.7-0.8c-1.3,0-2.4,0.6-3,1.7c-1,1.2-2.3,2.6-2.6,2.9
			c-2.4,1.6-4.2,1.4-6.3-0.6L19.1,25c-2-2-2.2-3.9-0.6-6.3c0.2-0.3,1.6-1.6,2.9-2.6c0.8-0.5,1.3-1.1,1.5-2c0.3-1.1,0.1-2.4-0.7-3.7
			c-0.2-0.3-4.3-7.3-8.1-9.3c-0.7-0.4-1.5-0.6-2.3-0.6c-1.3,0-2.6,0.5-3.5,1.4L5.8,4.5c-4,4-5.5,8.6-4.3,13.5
			c1,4.1,3.7,8.5,8.3,13.1l14.7,14.7c5.7,5.7,11.2,8.7,16.3,8.7c0,0,0,0,0,0c3.7,0,7.2-1.6,10.3-4.7l2.5-2.5
			C55.1,45.7,55.5,43.4,54.5,41.5z"/>
	</g>
</g>
</svg>
