<svg id="Capa_16" data-name="Capa 16" xmlns="http://www.w3.org/2000/svg" viewBox="0 0 937.86 920"><defs><style>.cls-1{fill:#999;stroke:#232323;stroke-miterlimit:10;}.cls-2,.cls-3{fill:#fff;}.cls-3{font-size:32.54px;font-family:MyriadPro-Bold, Myriad Pro;font-weight:700;}</style></defs><title>Mesa de trabajo 1</title><ellipse class="cls-1" cx="750.14" cy="57.5" rx="21.92" ry="21.72"/><path class="cls-2" d="M748.78,50.3h-.07l-4.07,1.92-.82-3.71,5.65-2.6h4.14V67h-4.83Z"/><ellipse class="cls-1" cx="753.28" cy="126.42" rx="21.92" ry="21.72"/><path class="cls-2" d="M745.55,136v-3l2.76-2.47c4.66-4.13,6.93-6.51,7-9,0-1.72-1.05-3.09-3.51-3.09a7.78,7.78,0,0,0-4.56,1.76l-1.41-3.55a11.89,11.89,0,0,1,7-2.18c4.83,0,7.49,2.8,7.49,6.64,0,3.55-2.59,6.38-5.68,9.11l-2,1.63v.06h8V136Z"/><ellipse class="cls-1" cx="789.03" cy="193.17" rx="21.92" ry="21.72"/><path class="cls-2" d="M782.18,197.87a11.85,11.85,0,0,0,5,1.3c2.59,0,3.91-1.24,3.91-2.83,0-2.08-2.1-3-4.3-3h-2v-3.55h1.94c1.67,0,3.81-.65,3.81-2.44,0-1.27-1.05-2.21-3.15-2.21a9.81,9.81,0,0,0-4.47,1.27l-1-3.58a13.48,13.48,0,0,1,6.6-1.59c4.56,0,7.09,2.38,7.09,5.27,0,2.24-1.28,4-3.91,4.91v.06a5.27,5.27,0,0,1,4.63,5.14c0,3.74-3.32,6.47-8.73,6.47a12.7,12.7,0,0,1-6.34-1.5Z"/><ellipse class="cls-1" cx="646.28" cy="81.03" rx="21.92" ry="21.72"/><path class="cls-2" d="M647.38,90.58v-5h-9.46V82.32L646,69.43h6.11V81.83h2.56v3.71h-2.56v5Zm0-8.75V77.14c0-1.27.07-2.57.16-3.94h-.13c-.69,1.37-1.25,2.6-2,3.94l-2.86,4.62v.06Z"/><ellipse class="cls-1" cx="580.29" cy="81.03" rx="21.92" ry="21.72"/><path class="cls-2" d="M586.81,73.5h-8.27l-.46,3.25a9.36,9.36,0,0,1,1.38-.06,9.83,9.83,0,0,1,5.62,1.53,6,6,0,0,1,2.59,5.3c0,3.94-3.42,7.42-9.16,7.42a13.67,13.67,0,0,1-5.94-1.2l.89-3.71a12.37,12.37,0,0,0,4.83,1c2.07,0,4.27-1,4.27-3.22s-1.74-3.51-6-3.51a18.57,18.57,0,0,0-2.89.2l1.41-11.09h11.76Z"/><ellipse class="cls-1" cx="648.62" cy="206.85" rx="21.92" ry="21.72"/><path class="cls-2" d="M654.51,198.77a13.85,13.85,0,0,0-1.94.07c-4.43.36-6.4,2.6-7,5.07h.1a6,6,0,0,1,4.53-1.69c3.58,0,6.6,2.51,6.6,6.9a7.61,7.61,0,0,1-7.88,7.65c-5.68,0-8.47-4.2-8.47-9.24a12.6,12.6,0,0,1,3.78-9.4,12.86,12.86,0,0,1,8.24-3.12,14.31,14.31,0,0,1,2,0Zm-2.73,10.61c0-2-1.05-3.64-3.19-3.64a3.26,3.26,0,0,0-3,1.89,2.83,2.83,0,0,0-.2,1.24c.1,2.24,1.18,4.26,3.45,4.26C650.67,213.11,651.79,211.52,651.79,209.37Z"/><ellipse class="cls-1" cx="577.64" cy="161.41" rx="21.92" ry="21.72"/><path class="cls-2" d="M585.21,149.81v3.12l-8.8,18h-5.29l8.8-17v-.06h-9.79v-4.07Z"/><ellipse class="cls-1" cx="591.97" cy="235.91" rx="21.92" ry="21.72"/><path class="cls-2" d="M583.91,239.93c0-2.54,1.48-4.29,3.81-5.3v-.1a5.13,5.13,0,0,1-3.09-4.62c0-3.58,3.25-6,7.52-6,5,0,7.06,2.86,7.06,5.43a5.15,5.15,0,0,1-3.09,4.65v.1a5.6,5.6,0,0,1,3.91,5.27c0,3.84-3.25,6.41-8.21,6.41C586.4,245.82,583.91,242.79,583.91,239.93Zm11-.16c0-1.85-1.38-3-3.35-3.48a3.21,3.21,0,0,0-2.59,3.16,2.91,2.91,0,0,0,3,3A2.67,2.67,0,0,0,594.94,239.76Zm-5.62-10c0,1.43,1.31,2.34,3,2.86a2.9,2.9,0,0,0,2.17-2.7,2.44,2.44,0,0,0-2.59-2.6A2.37,2.37,0,0,0,589.33,229.74Z"/><ellipse class="cls-1" cx="548.78" cy="371.42" rx="21.92" ry="21.72"/><path class="cls-2" d="M542.63,377.39a11.8,11.8,0,0,0,2.17,0,8.64,8.64,0,0,0,4.2-1.3,6.57,6.57,0,0,0,2.69-3.9l-.1,0a5.67,5.67,0,0,1-4.27,1.53,6.4,6.4,0,0,1-6.67-6.6,7.73,7.73,0,0,1,8-7.61c5.48,0,8.08,4.16,8.08,9.11,0,4.39-1.41,7.61-3.74,9.73a12.69,12.69,0,0,1-8.14,3,17.46,17.46,0,0,1-2.27,0Zm3-10.61c0,1.82,1,3.38,3,3.38a3.15,3.15,0,0,0,2.76-1.4,2.31,2.31,0,0,0,.26-1.24c0-2.24-.85-4.46-3.12-4.46C546.86,363.07,545.61,364.57,545.65,366.78Z"/><ellipse class="cls-1" cx="615.36" cy="418.78" rx="21.92" ry="21.72"/><path class="cls-2" d="M604.89,411.58h-.07l-4.07,1.92-.82-3.71,5.65-2.6h4.14v21.15h-4.83Z"/><path class="cls-2" d="M632.5,417.66c0,6.54-2.66,11-8.11,11s-7.95-4.91-8-10.9,2.63-11,8.14-11C630.27,406.83,632.5,411.87,632.5,417.66Zm-11.07.13c0,4.85,1.15,7.16,3.09,7.16s3-2.41,3-7.22-1-7.16-3-7.16C622.65,410.57,621.4,412.88,621.43,417.79Z"/><ellipse class="cls-1" cx="465.11" cy="159.16" rx="21.92" ry="21.72"/><path class="cls-2" d="M454.64,152h-.07l-4.07,1.92-.82-3.71,5.65-2.6h4.14v21.15h-4.83Z"/><path class="cls-2" d="M472.86,152h-.07l-4.07,1.92-.82-3.71,5.65-2.6h4.14v21.15h-4.83Z"/><ellipse class="cls-1" cx="487.03" cy="234.28" rx="21.92" ry="21.72"/><path class="cls-2" d="M476.56,227.08h-.07L472.42,229l-.82-3.71,5.65-2.6h4.14v21.15h-4.83Z"/><path class="cls-2" d="M488.41,243.83v-3l2.76-2.47c4.66-4.13,6.93-6.51,7-9,0-1.72-1.05-3.09-3.51-3.09a7.78,7.78,0,0,0-4.56,1.76l-1.41-3.55a11.89,11.89,0,0,1,7-2.18c4.83,0,7.49,2.8,7.49,6.64,0,3.55-2.59,6.38-5.68,9.11l-2,1.63v.06h8v4.07Z"/><ellipse class="cls-1" cx="387.05" cy="191.01" rx="21.92" ry="21.72"/><path class="cls-2" d="M376.58,183.8h-.07l-4.07,1.92-.82-3.71,5.65-2.6h4.14v21.15h-4.83Z"/><path class="cls-2" d="M389.32,195.71a11.85,11.85,0,0,0,5,1.3c2.59,0,3.91-1.24,3.91-2.83,0-2.08-2.1-3-4.3-3h-2v-3.55h1.94c1.67,0,3.81-.65,3.81-2.44,0-1.27-1.05-2.21-3.15-2.21a9.81,9.81,0,0,0-4.47,1.27l-1-3.58a13.48,13.48,0,0,1,6.6-1.59c4.56,0,7.09,2.38,7.09,5.27,0,2.24-1.28,4-3.91,4.91v.06a5.27,5.27,0,0,1,4.63,5.14c0,3.74-3.32,6.47-8.73,6.47a12.71,12.71,0,0,1-6.34-1.5Z"/><ellipse class="cls-1" cx="430.71" cy="286.34" rx="21.92" ry="21.72"/><path class="cls-2" d="M420.24,279.13h-.07l-4.07,1.92-.82-3.71,5.65-2.6h4.14v21.15h-4.83Z"/><path class="cls-2" d="M440.92,295.89v-5h-9.46v-3.22l8.08-12.88h6.11v12.39h2.56v3.71h-2.56v5Zm0-8.75v-4.68c0-1.27.07-2.57.16-3.94H441c-.69,1.37-1.25,2.6-2,3.94l-2.86,4.62v.06Z"/><ellipse class="cls-1" cx="451.35" cy="334.96" rx="21.92" ry="21.72"/><path class="cls-2" d="M440.88,327.75h-.07l-4.07,1.92-.82-3.71,5.65-2.6h4.14v21.15h-4.83Z"/><path class="cls-2" d="M467,327.43H458.7l-.46,3.25a9.36,9.36,0,0,1,1.38-.06,9.83,9.83,0,0,1,5.62,1.53,6,6,0,0,1,2.59,5.3c0,3.94-3.42,7.42-9.16,7.42a13.67,13.67,0,0,1-5.94-1.2l.89-3.71a12.36,12.36,0,0,0,4.83,1c2.07,0,4.27-1,4.27-3.22s-1.74-3.51-6-3.51a18.57,18.57,0,0,0-2.89.2l1.41-11.09H467Z"/><ellipse class="cls-1" cx="484.96" cy="387.27" rx="21.92" ry="21.72"/><path class="cls-2" d="M474.49,380.07h-.07L470.35,382l-.82-3.71,5.65-2.6h4.14v21.15h-4.83Z"/><path class="cls-2" d="M500,379.19a13.91,13.91,0,0,0-1.94.06c-4.43.36-6.4,2.6-7,5.08h.1a6,6,0,0,1,4.53-1.69c3.58,0,6.6,2.5,6.6,6.9a7.61,7.61,0,0,1-7.88,7.65c-5.68,0-8.47-4.2-8.47-9.24a12.6,12.6,0,0,1,3.78-9.4,12.86,12.86,0,0,1,8.24-3.12,14.47,14.47,0,0,1,2,0Zm-2.73,10.61c0-2-1.05-3.64-3.19-3.64a3.26,3.26,0,0,0-3,1.89,2.83,2.83,0,0,0-.2,1.24c.1,2.24,1.18,4.26,3.45,4.26C496.12,393.54,497.24,391.94,497.24,389.8Z"/><ellipse class="cls-1" cx="402.65" cy="396.82" rx="21.92" ry="21.72"/><text class="cls-3" transform="translate(384.43 406.37) scale(1.01 1)">17</text><ellipse class="cls-1" cx="231.2" cy="273.03" rx="21.92" ry="21.72"/><path class="cls-2" d="M220.73,265.83h-.07l-4.07,1.92-.82-3.71,5.65-2.6h4.14v21.15h-4.83Z"/><path class="cls-2" d="M232.25,277.05c0-2.54,1.48-4.29,3.81-5.3v-.1A5.13,5.13,0,0,1,233,267c0-3.58,3.25-6,7.52-6,5,0,7.06,2.86,7.06,5.43a5.15,5.15,0,0,1-3.09,4.65v.1a5.6,5.6,0,0,1,3.91,5.27c0,3.84-3.25,6.41-8.21,6.41C234.75,282.94,232.25,279.91,232.25,277.05Zm11-.16c0-1.85-1.38-3-3.35-3.48a3.21,3.21,0,0,0-2.59,3.16,2.91,2.91,0,0,0,3,3A2.67,2.67,0,0,0,243.28,276.89Zm-5.62-10c0,1.43,1.31,2.34,3,2.86a2.9,2.9,0,0,0,2.17-2.7,2.44,2.44,0,0,0-2.59-2.6A2.37,2.37,0,0,0,237.67,266.87Z"/><ellipse class="cls-1" cx="275.6" cy="397.88" rx="21.92" ry="21.72"/><path class="cls-2" d="M265.13,390.68h-.07L261,392.6l-.82-3.71,5.65-2.6H270v21.15h-4.83Z"/><path class="cls-2" d="M278.55,403.85a11.8,11.8,0,0,0,2.17,0,8.64,8.64,0,0,0,4.2-1.3,6.57,6.57,0,0,0,2.69-3.9l-.1,0a5.67,5.67,0,0,1-4.27,1.53,6.4,6.4,0,0,1-6.67-6.6,7.73,7.73,0,0,1,8-7.61c5.48,0,8.08,4.16,8.08,9.11,0,4.39-1.41,7.61-3.74,9.73a12.69,12.69,0,0,1-8.14,3,17.46,17.46,0,0,1-2.27,0Zm3-10.61c0,1.82,1,3.38,3,3.38a3.15,3.15,0,0,0,2.76-1.4,2.31,2.31,0,0,0,.26-1.24c0-2.24-.85-4.46-3.12-4.46C282.79,389.54,281.54,391,281.57,393.25Z"/><ellipse class="cls-1" cx="286.62" cy="466.01" rx="21.92" ry="21.72"/><path class="cls-2" d="M269.77,475.56v-3l2.76-2.47c4.66-4.13,6.93-6.51,7-9,0-1.72-1.05-3.09-3.51-3.09a7.78,7.78,0,0,0-4.56,1.76L270,456.24a11.89,11.89,0,0,1,7-2.18c4.83,0,7.49,2.8,7.49,6.64,0,3.55-2.59,6.38-5.68,9.11l-2,1.63v.06h8v4.07Z"/><path class="cls-2" d="M303.76,464.89c0,6.54-2.66,11-8.11,11s-7.95-4.91-8-10.9,2.63-11,8.14-11C301.52,454.06,303.76,459.1,303.76,464.89Zm-11.07.13c0,4.85,1.15,7.16,3.09,7.16s3-2.41,3-7.22-1-7.16-3-7.16C293.91,457.8,292.66,460.11,292.69,465Z"/><ellipse class="cls-1" cx="389.37" cy="553.33" rx="21.92" ry="21.72"/><path class="cls-2" d="M372.52,562.88v-3l2.76-2.47c4.66-4.13,6.93-6.51,7-9,0-1.72-1.05-3.09-3.51-3.09a7.78,7.78,0,0,0-4.56,1.76l-1.41-3.55a11.89,11.89,0,0,1,7-2.18c4.83,0,7.49,2.8,7.49,6.64,0,3.55-2.59,6.38-5.68,9.11l-2,1.63v.06h8v4.07Z"/><path class="cls-2" d="M397.12,546.13h-.07L393,548l-.82-3.71,5.65-2.6h4.14v21.15h-4.83Z"/><ellipse class="cls-1" cx="343" cy="590.35" rx="21.92" ry="21.72"/><path class="cls-2" d="M326.16,599.9v-3l2.76-2.47c4.66-4.13,6.93-6.51,7-9,0-1.72-1.05-3.09-3.51-3.09a7.78,7.78,0,0,0-4.56,1.76l-1.41-3.55a11.89,11.89,0,0,1,7-2.18c4.83,0,7.49,2.8,7.49,6.64,0,3.55-2.59,6.38-5.68,9.11l-2,1.63v.06h8v4.07Z"/><path class="cls-2" d="M344.38,599.9v-3l2.76-2.47c4.66-4.13,6.93-6.51,7-9,0-1.72-1.05-3.09-3.51-3.09a7.78,7.78,0,0,0-4.56,1.76l-1.41-3.55a11.89,11.89,0,0,1,7-2.18c4.83,0,7.49,2.8,7.49,6.64,0,3.55-2.59,6.38-5.68,9.11l-2,1.63v.06h8v4.07Z"/><ellipse class="cls-1" cx="301.03" cy="548.42" rx="21.92" ry="21.72"/><path class="cls-2" d="M284.19,558v-3l2.76-2.47c4.66-4.13,6.93-6.51,7-9,0-1.72-1.05-3.09-3.51-3.09a7.78,7.78,0,0,0-4.56,1.76l-1.41-3.55a11.89,11.89,0,0,1,7-2.18c4.83,0,7.49,2.8,7.49,6.64,0,3.55-2.59,6.38-5.68,9.11l-2,1.63v.06h8V558Z"/><path class="cls-2" d="M303.3,553.12a11.85,11.85,0,0,0,5,1.3c2.59,0,3.91-1.24,3.91-2.83,0-2.08-2.1-3-4.3-3h-2V545h1.94c1.67,0,3.81-.65,3.81-2.44,0-1.27-1.05-2.21-3.15-2.21a9.81,9.81,0,0,0-4.47,1.27l-1-3.58a13.48,13.48,0,0,1,6.6-1.59c4.56,0,7.09,2.38,7.09,5.27,0,2.24-1.28,4-3.91,4.91v.06a5.27,5.27,0,0,1,4.63,5.14c0,3.74-3.32,6.47-8.73,6.47a12.71,12.71,0,0,1-6.34-1.5Z"/><ellipse class="cls-1" cx="77.53" cy="436.23" rx="21.92" ry="21.72"/><path class="cls-2" d="M60.69,445.78v-3l2.76-2.47c4.66-4.13,6.93-6.51,7-9,0-1.72-1.05-3.09-3.51-3.09A7.78,7.78,0,0,0,62.37,430L61,426.45a11.89,11.89,0,0,1,7-2.18c4.83,0,7.49,2.8,7.49,6.64,0,3.55-2.59,6.38-5.68,9.11l-2,1.63v.06h8v4.07Z"/><path class="cls-2" d="M87.75,445.78v-5H78.29v-3.22l8.08-12.88h6.11V437H95v3.71H92.47v5Zm0-8.75v-4.68c0-1.27.07-2.57.16-3.94h-.13c-.69,1.37-1.25,2.6-2,3.94L83,437V437Z"/><ellipse class="cls-1" cx="173.53" cy="559.92" rx="21.92" ry="21.72"/><path class="cls-2" d="M156.69,569.47v-3l2.76-2.47c4.66-4.13,6.93-6.51,7-9,0-1.72-1.05-3.09-3.51-3.09a7.78,7.78,0,0,0-4.56,1.76L157,550.14a11.89,11.89,0,0,1,7-2.18c4.83,0,7.49,2.8,7.49,6.64,0,3.55-2.59,6.38-5.68,9.11l-2,1.63v.06h8v4.07Z"/><path class="cls-2" d="M189.16,552.39h-8.27l-.46,3.25a9.35,9.35,0,0,1,1.38-.06,9.83,9.83,0,0,1,5.62,1.53,6,6,0,0,1,2.59,5.3c0,3.94-3.42,7.42-9.16,7.42a13.67,13.67,0,0,1-5.94-1.2l.89-3.71a12.37,12.37,0,0,0,4.83,1c2.07,0,4.27-1,4.27-3.22s-1.74-3.51-6-3.51a18.56,18.56,0,0,0-2.89.2l1.41-11.09h11.76Z"/><ellipse class="cls-1" cx="191.37" cy="698.42" rx="21.92" ry="21.72"/><path class="cls-2" d="M174.52,708v-3l2.76-2.47c4.66-4.13,6.93-6.51,7-9,0-1.72-1.05-3.09-3.51-3.09a7.78,7.78,0,0,0-4.56,1.76l-1.41-3.55a11.89,11.89,0,0,1,7-2.18c4.83,0,7.49,2.8,7.49,6.64,0,3.55-2.59,6.38-5.68,9.11l-2,1.63v.06h8V708Z"/><path class="cls-2" d="M206.37,690.33a13.85,13.85,0,0,0-1.94.07c-4.43.36-6.4,2.6-7,5.07h.1a6,6,0,0,1,4.53-1.69c3.58,0,6.6,2.51,6.6,6.9a7.61,7.61,0,0,1-7.88,7.65c-5.68,0-8.47-4.2-8.47-9.24a12.6,12.6,0,0,1,3.78-9.4,12.86,12.86,0,0,1,8.24-3.12,14.31,14.31,0,0,1,2,0Zm-2.73,10.61c0-2-1.05-3.64-3.19-3.64a3.26,3.26,0,0,0-3,1.89,2.83,2.83,0,0,0-.2,1.24c.1,2.24,1.18,4.26,3.45,4.26C202.53,704.68,203.65,703.09,203.65,700.94Z"/><ellipse class="cls-1" cx="29.03" cy="391.66" rx="21.92" ry="21.72"/><path class="cls-2" d="M12.19,401.21v-3l2.76-2.47c4.66-4.13,6.93-6.51,7-9,0-1.72-1.05-3.09-3.51-3.09a7.78,7.78,0,0,0-4.56,1.76l-1.41-3.55a11.89,11.89,0,0,1,7-2.18c4.83,0,7.49,2.8,7.49,6.64,0,3.55-2.59,6.38-5.68,9.11l-2,1.63v.06h8v4.07Z"/><path class="cls-2" d="M45.71,380.06v3.12l-8.8,18H31.63l8.8-17v-.06H30.64v-4.07Z"/><ellipse class="cls-1" cx="459.45" cy="751.19" rx="21.92" ry="21.72"/><path class="cls-2" d="M442.61,760.74v-3l2.76-2.47c4.66-4.13,6.93-6.51,7-9,0-1.72-1.05-3.09-3.51-3.09a7.78,7.78,0,0,0-4.56,1.76l-1.41-3.55a11.89,11.89,0,0,1,7-2.18c4.83,0,7.49,2.8,7.49,6.64,0,3.55-2.59,6.38-5.68,9.11l-2,1.63v.06h8v4.07Z"/><path class="cls-2" d="M462.41,757.17a11.8,11.8,0,0,0,2.17,0,8.64,8.64,0,0,0,4.2-1.3,6.57,6.57,0,0,0,2.69-3.9l-.1,0a5.67,5.67,0,0,1-4.27,1.53,6.4,6.4,0,0,1-6.67-6.6,7.73,7.73,0,0,1,8-7.61c5.48,0,8.08,4.16,8.08,9.11,0,4.39-1.41,7.61-3.74,9.73a12.69,12.69,0,0,1-8.14,3,17.46,17.46,0,0,1-2.27,0Zm3-10.61c0,1.82,1,3.38,3,3.38a3.15,3.15,0,0,0,2.76-1.4,2.31,2.31,0,0,0,.26-1.24c0-2.24-.85-4.46-3.12-4.46C466.64,742.85,465.39,744.35,465.43,746.56Z"/><ellipse class="cls-1" cx="26.03" cy="653.26" rx="21.92" ry="21.72"/><path class="cls-2" d="M9.19,662.81v-3l2.76-2.47c4.66-4.13,6.93-6.51,7-9,0-1.72-1.05-3.09-3.51-3.09A7.78,7.78,0,0,0,10.87,647l-1.41-3.55a11.89,11.89,0,0,1,7-2.18c4.83,0,7.49,2.8,7.49,6.64,0,3.55-2.59,6.38-5.68,9.11l-2,1.63v.06h8v4.07Z"/><path class="cls-2" d="M27.08,657.28c0-2.54,1.48-4.29,3.81-5.3v-.1a5.13,5.13,0,0,1-3.09-4.62c0-3.58,3.25-6,7.52-6,5,0,7.06,2.86,7.06,5.43a5.15,5.15,0,0,1-3.09,4.65v.1a5.6,5.6,0,0,1,3.91,5.27c0,3.84-3.25,6.41-8.21,6.41C29.58,663.16,27.08,660.14,27.08,657.28Zm11-.16c0-1.85-1.38-3-3.35-3.48a3.21,3.21,0,0,0-2.59,3.16,2.91,2.91,0,0,0,3,3A2.67,2.67,0,0,0,38.12,657.11Zm-5.62-10c0,1.43,1.31,2.34,3,2.86a2.9,2.9,0,0,0,2.17-2.7,2.44,2.44,0,0,0-2.59-2.6A2.37,2.37,0,0,0,32.5,647.09Z"/></svg>