<svg xmlns="http://www.w3.org/2000/svg" viewBox="0 0 937.86 920"><defs><style>.cls-1{fill:#eae6b5;}.cls-1,.cls-10,.cls-11,.cls-12,.cls-13,.cls-14,.cls-15,.cls-16,.cls-17,.cls-18,.cls-19,.cls-2,.cls-20,.cls-3,.cls-4,.cls-5,.cls-6,.cls-7,.cls-8,.cls-9{stroke:#000;stroke-miterlimit:10;}.cls-2{fill:#9da3a5;}.cls-3{fill:#d89b21;}.cls-4{fill:#b57e2d;}.cls-5{fill:none;}.cls-6{fill:#28770e;}.cls-7{fill:#24c3dd;}.cls-8{fill:#164214;}.cls-9{fill:#959696;}.cls-10{fill:#26db59;}.cls-11{fill:#3dc936;}.cls-12{fill:#414242;}.cls-13{fill:#7d8082;}.cls-14{fill:#6e7070;}.cls-15{fill:#c2cbce;}.cls-16{fill:#727677;}.cls-17{fill:#fff;}.cls-18{fill:#f2f2f2;}.cls-19{fill:#39c;}.cls-20{fill:#846030;}</style></defs><title>Mesa de trabajo 1</title><g id="AMARILLO_FONDO" data-name="AMARILLO FONDO"><polygon class="cls-1" points="34.03 824.67 26.03 285.67 757.03 1.67 937.86 516.67 561.03 569.67 621.03 790.39 35.03 830 34.03 824.67"/></g><g id="Borde_y_cosa_gris" data-name="Borde y cosa gris"><path class="cls-2" d="M15,213.67l14-6.33h4v68.33l269-106-6.33-11v-3.33H302L310.37,168,575.7,62.67l-6-16h6L581,59.33,733.7,0h22.67L25,286.67,27,352l19.33,9.33L113,352.67l112.67-9.33L323,334s42.67-19.33,56.67-67.33c0,0-5.33-14.67-4-18s2-26.67,2-26.67-24.67-10-18-24.67S373.7,178.67,381,176s1.33-7.33,9.33-12,14.67-10,20-14S435,138.67,439.7,138.67s18.67-3.33,26-6.67,12-6,20.67-8,12.7,3.33,24,2,22-7.33,22-7.33l12-4.67h20l22-12.67,14-6-.67,9.33-11.33,2.67s-10,8.67-11.33,15.33-6.3,12.69-6.3,12.69l-5,86.64,44.67,16.67.68,10.65L609.7,282.9l-11,4.44.54-44S559,234.67,559,226s3.69-52.64,3.69-52.64l3-52-24-1.33L541,138l-19.37,2.67-4-8a49.8,49.8,0,0,0-7.33-1.33c-2,0-7.33,9.33-7.33,9.33l-14.67,5.41-6.34.78-25.35-.78s-11,12.59-9,34.59S443,199.33,443,199.33l-1.33,20-3.33,11.49H433L431,240s2.67,8-1.33,9.33-36,3.33-36,3.33-3.34-8-8,25.33-4,42-4,42l100,4.67L497,322h12l5.33.67,7.3-1.33,11-2v17.33l-6,4V348l6.37,3.33-2,4-9.37.67s-3.3,27.33-3.3,30,15.33,14.67,21.33,17.33S571,408.67,571,408.67l10.67-3.33,4-4,1.33,7.33s-6.67,5.33-4.67,6.67-35.33,0-35.33,0-1.33,8-.67,12-2.67,8-2.67,8l-30.67,6-2.67-6.67h-22S465,466,453.7,475.33,437,490,437,490l2.67-10s20-14.67,24-23.33S478.37,432,478.37,432s.67-6.67,10-6.67,29.33-5,29.33-5h20s4.67-7.67-22-25l-6-5.33,4.61-33.36L514,338.48,502.71,329l-16.15,1.69L385.7,328l-18,16.67h-9.33s-36,0-45.33.67-86,9.33-86,9.33-4.67,8-4.67,12,1,101,1,101l6.33,11.67s12-3,16.67,2S254,491,254.7,500s0,30.33,0,30.33L257,624.28l2.26,5.62L258,649s-56.67,4.67-56.67,3.67S195.37,646,189,646,78.7,652.81,78.7,652.81,57.79,654.32,54.18,663s-15.82,17.12-15.82,17.12S32,683,32.37,706,32,827,32,827l.67,8.67L40,839l217.33-11.67,169.31-12.08L612,802.67l.67,3.33-109,7.67.33,10.67-24.33,8-12-15L135,837.67l-78.33,5s-25.29-.45-26.81,36.11L32,920H26.7L24.37,739.34l-2-157.67L19.36,412Z"/><path class="cls-1" d="M82.7,370l3.67,39.67,10.33,2.67,10-2.33s2-36,26-37,86.67-6.67,86.67-6.67V356Z"/></g><g id="cosas_naranjas" data-name="cosas naranjas"><polygon class="cls-3" points="187.78 650.42 187.78 659.92 183.03 659.92 183.03 663.92 187.78 663.92 187.78 688.92 201.78 688.92 201.78 693.67 201.78 695.17 221.03 695.17 221.03 665.92 202.03 665.92 202.03 685.42 192.78 685.69 192.78 650.42 187.78 650.42"/><polygon class="cls-3" points="229.78 708.92 229.78 736.67 247.16 736.67 249.03 736.67 249.03 708.92 229.78 708.92"/><polygon class="cls-3" points="200.03 706.67 200.03 727.92 218.6 727.92 218.6 706.67 218.6 698.42 207.28 698.42 207.28 701.42 215.28 701.42 215.28 706.67 200.03 706.67"/><polyline class="cls-3" points="250.41 676.04 250.41 696.67 230.78 696.67 230.78 676.04 250.91 676.04"/><polygon class="cls-3" points="414.28 722.92 411.03 784.37 470.28 786.67 473.78 722.92 414.28 722.92"/><polygon class="cls-4" points="254.28 508.92 271.78 508.92 271.78 495.17 271.78 484.92 378.78 489.17 378.78 494.67 412.28 494.92 412.28 502.67 421.28 502.17 416.53 602.67 411.03 602.67 411.28 611.92 272.53 605.92 272.78 597.17 267.53 597.17 270.78 514.92 254.28 514.42 254.28 508.92"/><polygon class="cls-5" points="288.04 606.59 270.78 632.67 264.28 632.67 263.03 635.42 268.78 635.42 268.68 653.26 271.53 653.26 272.03 636.42 292.28 606.59 288.04 606.59"/><polygon class="cls-3" points="325.53 492.5 309.53 492.5 309.53 502.17 301.03 502.17 301.03 515.34 307.2 515.34 307.2 553.33 329.67 553.33 329.67 503.83 329.67 497.33 325.7 497.33 325.53 492.5"/><polygon class="cls-3" points="362.2 501.67 362.2 560.34 367.2 560.34 367.2 569.5 385.37 569.5 385.37 518.34 393.03 518.34 393.03 508.67 386.03 508.67 386.03 500.83 386.03 499.33 380.53 499.33 380.53 494.68 378.78 494.67 378.78 493.33 365.7 493.33 365.7 501.67 362.2 501.67"/><polyline class="cls-3" points="329.3 608.37 329.3 575 356.7 575 356.7 609.56"/><polygon class="cls-3" points="495.37 446.83 499.37 460.33 512.37 458.67 516.7 478.67 516.7 480.17 550.7 471.84 551.7 471 541.87 436.84 495.37 446.83"/><polygon class="cls-3" points="533.94 305.04 533.94 385.67 577.7 386.67 580.2 305.04 533.94 305.04"/><path class="cls-4" d="M426.28,524.17,440,561.67l8-2.75-13.75-33.5-1-75.75h7l1.25-33.25h-8.75v12.25h-10v-2.5l7.25-1-.25-24.75H434v-5h34.75s7.75-30.25-16-33H441v3.75h-6.25v12.25h-8.5L426,367.67H392v2.5h-5v46.25h-4.54v39.25l1-.5s3.25,19.25,18.25,17.75c0,0,18.75.75,19.5-19.5V436.84h5Z"/><polyline class="cls-3" points="385.53 416.42 385.53 427.42 417.53 427.42 421.28 427.42 422.78 426.17 426.24 425.69 426.28 378.42 426.12 371.42 387.03 372.17"/><polygon class="cls-3" points="396.28 258.92 396.28 316.17 471.53 319.17 475.28 262.92 396.28 258.92"/><polygon class="cls-3" points="452.78 151.92 448.78 238.42 485.78 240.67 490.03 154.17 452.78 151.92"/><polygon class="cls-3" points="543.28 122.67 539.78 193.17 556.53 193.17 560.78 122.67 543.28 122.67"/><polygon class="cls-3" points="568.28 89.92 574.28 100.42 627.03 79.92 619.28 71.17 568.28 89.92"/><polygon class="cls-3" points="633.78 94.42 633.78 95.42 633.78 109.17 637.03 109.17 637.03 121.42 658.78 121.42 658.78 94.42 633.78 94.42"/><polygon class="cls-4" points="658.78 63.67 667.28 85.79 714.03 68.92 706.28 45.67 658.78 63.67"/><polygon class="cls-4" points="709.03 44.17 716.53 67.67 767.53 51.42 758.03 27.67 709.03 44.17"/><polygon class="cls-4" points="668.53 91.67 676.78 113.67 724.78 96.92 716.78 73.67 668.53 91.67"/><polygon class="cls-4" points="718.78 72.42 727.28 95.77 776.53 78.92 767.53 55.42 718.78 72.42"/><polygon class="cls-3" points="551.53 247.92 551.53 267.42 590.28 267.42 590.28 249.67 590.28 247.92 551.53 247.92"/><path class="cls-4" d="M587.87,400.67h10l-.19,6.17v3s11.09,6.08.39,15.29h-9.54s-8.67-4.79-5-12a10.07,10.07,0,0,1,4.83-4Z"/><path class="cls-4" d="M467.77,372.82l15.92-10.41s24.83-24.75,25.5-25.58-5.67-3.67-8.33-3.67-42.33,1.17-44.17,1.33-5,4.17-5,4.17l-9.33.33v15.33s-2,9.67-16.08,7.17l-34.08-.67S378,362.17,376,369a71.74,71.74,0,0,0-2,10l-2.67,71.5-21.83,23H332.7s-7.17.17-6.33-7.5l-.07-6.33-23.61-1.11s-52.49.78-64.32-16.39c0,0-3.83-2.5-6-23.17L232,406.66l-1.12-36s-2.67.17-2.67-1.33A40.23,40.23,0,0,1,229,364s-3.17,2.5-3,2,0,24.83,0,24.83l1.84,60.67L234,478.17h-3.17L224.7,456l-.33-94.17s-3.67-8,32.67-8.83c0,0,80.67-6.17,92.5-3.33,0,0,12.17,3.33,13.67,3.33,0,0,6-2-2-5l-4.33-3.17h12.67L381.37,329l127.88.83,6.28,5,.84,1.15L512,337.67l-26.09,27L468.61,375Z"/><path class="cls-6" d="M424.37,334.5v22.17h9.83s5.83.33,5.83-16l-.83-5.33Z"/><polygon class="cls-6" points="376.2 348.17 385.53 334 419.53 334 419.53 355.5 392.7 356.67 376.2 348.17"/><polygon class="cls-5" points="366.37 355.33 378.37 355.33 378.37 358.67 373.53 364.83 366.37 355.33"/><path class="cls-7" d="M250.37,358.5s32.5-3.83,47.5-4c0,0,4.49,1.08,16.33-2.17,0,0,18.5-2,29.17,2,0,0,4.33,5.17,6.5,6.5a89,89,0,0,0,15,3s8.4,3,5.45,20c0,0-2.62,10.5-2.12,15.58,0,0,.17,14.58.5,20.92s-1.17,26-1.17,26-15,19.67-20.67,22c0,0-10.33.5-13,0s-.67-7-3-9.83-50.17-2.33-71.83-8.17c0,0-16.33-5-20-14.33a16.07,16.07,0,0,1-3.33-10.33l-1.33-57S236.87,356.84,250.37,358.5Z"/><rect class="cls-4" x="343.03" y="765.5" width="18" height="26.67"/><polygon class="cls-4" points="82.34 638.6 85.03 643.17 58.46 645.67 32.53 619.42 29.03 453.42 34.53 453.42 42.03 459.17 41.28 460.92 34.28 456.67 38.53 618.42 58.46 640.17 73.43 640.73 82.34 638.6"/><polygon class="cls-4" points="70.53 566.67 59.11 569.2 59.11 578.17 74.53 576.92 70.53 471.17 59.11 462.92 57.03 374.42 57.03 372.67 50.53 372.67 50.53 407.17 54.03 408.17 55.03 463.17 67.03 473.33 70.53 566.67"/><path class="cls-3" d="M760,177.67s-7,3.25-6.75,10.38c0,0,3,8.47,10,8,0,0,8.88.13,9.13-9.87S763.28,176.67,760,177.67Z"/><path class="cls-5" d="M391,427.42V458.5s13.29,20.58,24.25,0V427.42Z"/><polygon class="cls-3" points="271.53 538.42 277.66 538.42 277.53 531.42 288.16 531.42 288.16 538.42 291.66 538.42 291.66 581.42 298.91 581.42 298.91 593.2 291.03 593.2 291.03 606.59 272.53 605.92 272.78 597.17 267.53 597.17 269.86 538.17 271.53 538.42"/><polyline class="cls-3" points="391.4 610.9 391.4 598.04 384.91 598.04 384.91 589.67 390.28 589.67 391.4 538.29 412.66 538.29 412.66 552.04 418.91 552.04 418.91 602.67 411.03 602.67 411.28 611.92 391.4 610.9"/></g><g id="verde"><polygon class="cls-6" points="367.53 308.67 376.87 313.5 378.37 295.67 367.53 308.67"/><ellipse class="cls-6" cx="361.45" cy="329.77" rx="9.5" ry="9.58"/><polygon class="cls-6" points="616.37 127.5 610.7 223.42 670.7 228.17 673.7 190.34 670.2 190 673.7 129.17 616.37 127.5"/><polygon class="cls-8" points="697.87 156.5 707.7 180.17 759.37 161.5 748.7 137.83 697.87 156.5"/><polygon class="cls-8" points="683.37 119.67 693.2 143.67 744.53 125.33 734.53 102.67 683.37 119.67"/><polygon class="cls-9" points="694.2 120.5 700.7 136.5 734.2 124.33 728.62 109.5 694.2 120.5"/><polygon class="cls-9" points="707.37 157.84 713.95 173.67 747.66 160.34 741.53 145.17 707.37 157.84"/><path class="cls-6" d="M524.53,427.42s-6,1.25-4.12,4.88c0,0,6.63,4.75,8.25,0C528.66,432.29,531.16,427.29,524.53,427.42Z"/><polygon class="cls-6" points="507.66 429.92 508.31 433.79 511.16 433.79 511.91 429.92 509.78 429.92 507.66 429.92"/><path class="cls-10" d="M476.16,343.17s-7-3.62-7.25,4c0,0,4.5,5.25,7.25.69S476.16,343.17,476.16,343.17Z"/><rect class="cls-5" x="56.16" y="364.04" width="10.38" height="3.38"/><polyline class="cls-6" points="27.52 408.47 28.03 435.33 33.53 435.33 39.66 431.29 39.66 411.92 33.59 408.04 27.52 408.04"/><path class="cls-6" d="M49.91,404.42l-8.42-9.85-10.08.72s-7-4.12-6.37-8,12.63-11.75,15.88-12.5,9,0,9,0Z"/><ellipse class="cls-6" cx="279.78" cy="504.42" rx="2.25" ry="2.13"/><ellipse class="cls-6" cx="279.78" cy="514.54" rx="2.25" ry="2.13"/><ellipse class="cls-6" cx="279.78" cy="523.92" rx="2.25" ry="2.13"/><ellipse class="cls-6" cx="410.28" cy="510.29" rx="2.25" ry="2.13"/><ellipse class="cls-6" cx="410.78" cy="520.54" rx="2.25" ry="2.13"/><ellipse class="cls-6" cx="409.78" cy="530.54" rx="2.25" ry="2.13"/><ellipse class="cls-6" cx="365.54" cy="580.3" rx="3.25" ry="3.07"/><ellipse class="cls-6" cx="365.54" cy="590.35" rx="3.25" ry="3.07"/><ellipse class="cls-6" cx="365.54" cy="599.42" rx="3.25" ry="3.07"/><ellipse class="cls-6" cx="318.53" cy="575.82" rx="2.25" ry="2.13"/><ellipse class="cls-6" cx="318.53" cy="585.95" rx="2.25" ry="2.13"/><ellipse class="cls-6" cx="318.53" cy="595.32" rx="2.25" ry="2.13"/><ellipse class="cls-6" cx="407.07" cy="228.83" rx="5.79" ry="5.83"/><ellipse class="cls-6" cx="385.2" cy="209.65" rx="3.33" ry="3.02"/><ellipse class="cls-6" cx="374.53" cy="212.75" rx="3.33" ry="3.08"/><ellipse class="cls-6" cx="374.12" cy="203.33" rx="2.42" ry="2.5"/><ellipse class="cls-6" cx="378.53" cy="193.06" rx="2.17" ry="2.23"/><ellipse class="cls-6" cx="386.03" cy="199.25" rx="3.33" ry="3.08"/><ellipse class="cls-6" cx="393.28" cy="187.5" rx="2.92" ry="3.17"/><ellipse class="cls-6" cx="404.55" cy="194.23" rx="2.52" ry="2.06"/><ellipse class="cls-6" cx="419.78" cy="186.75" rx="1.42" ry="1.75"/><ellipse class="cls-6" cx="404.97" cy="181.83" rx="2.1" ry="2.5"/><ellipse class="cls-6" cx="397.95" cy="178.08" rx="2.42" ry="2.58"/><ellipse class="cls-6" cx="414.62" cy="172.83" rx="3.75" ry="3.5"/><circle class="cls-6" cx="431.12" cy="167.58" r="3.08"/><ellipse class="cls-6" cx="421.99" cy="159.42" rx="2.21" ry="2.58"/><ellipse class="cls-6" cx="400.41" cy="157.25" rx="2.46" ry="2.92"/><ellipse class="cls-6" cx="446.99" cy="143.17" rx="1.79" ry="2"/><ellipse class="cls-6" cx="459.45" cy="135.5" rx="1.75" ry="1.33"/><ellipse class="cls-6" cx="495.2" cy="126.42" rx="4" ry="3.75"/><ellipse class="cls-11" cx="452.62" cy="379.67" rx="8.08" ry="7.83"/></g><g id="gris_oscuro" data-name="gris oscuro"><path class="cls-12" d="M364.87,609.91v40.51l.66,1.58-.33,12.67L381,679v19.42l26.5,28,6.75-3.5-24.7-26.25v-19L373.7,661.33v-15l23.85.33s2.82-4.67-1.52-7l-.33-28.6Z"/><polygon class="cls-12" points="466.82 587.28 472.03 611.06 477.37 611.06 477.37 614 486.03 614 486.03 599.42 497.7 599.42 497.7 587.28 475.45 590.35 472.7 585.95 466.82 587.28"/><line class="cls-5" x1="475.45" y1="609.91" x2="475.45" y2="590.35"/><line class="cls-5" x1="396.03" y1="639.67" x2="364.87" y2="639.67"/><line class="cls-5" x1="373.7" y1="646.33" x2="364.87" y2="646.33"/><line class="cls-5" x1="373.7" y1="653.26" x2="365.54" y2="652"/><polygon class="cls-12" points="202.03 228.84 323.37 199.25 323.37 195.29 317.37 196.29 315.03 193.06 202.03 223 202.03 228.84"/><rect class="cls-12" x="191.37" y="228.83" width="5.67" height="3.5"/><polygon class="cls-12" points="320.37 185 320.37 190.67 328.7 188.5 324.53 181.83 320.37 185"/><polygon class="cls-13" points="536.53 102.17 536.53 107.92 568.28 105.04 560.78 89.33 536.53 102.17"/><polygon class="cls-13" points="492.7 156.84 502.37 156.84 502.37 195.29 490.03 195.29 492.7 156.84"/><polygon class="cls-13" points="516.03 169.33 516.03 176.33 526.03 177.16 526.03 169.33 532.03 169.33 532.03 150.33 532.03 147 524.03 147 524.03 151.92 521.66 151.92 521.66 147 518.37 147 518.78 143.17 511.91 143.17 511.91 147.67 509.41 147.42 509.41 160.17 514.28 160.17 514.03 169.29 516.03 169.33"/><polyline class="cls-14" points="670.74 190.05 663.53 190.05 664.53 142.34 667.14 142.34 667.14 138.5 632.87 137.83 632.87 134.5 622.7 134.5 622.7 143.17 626.03 143.67 625.89 166.67 622.7 166.67 622.7 216 671.61 216.69"/><polygon class="cls-13" points="302.65 460.33 302.65 471.92 325.28 471.92 324.28 460.33 302.65 460.33"/><line class="cls-5" x1="330.87" y1="458.5" x2="355.2" y2="461.1"/><path class="cls-15" d="M409.78,471.92l2.25,3,1,12.25h7L419,474.67s5.07-6.36-3.27-7Z"/><polygon class="cls-5" points="490.37 425 491.43 432.13 500.53 430.91 500.7 423.33 490.37 425"/><polygon class="cls-12" points="204.37 371.5 204.37 373.83 210.87 373.83 211.7 373.83 211.7 391 209.66 391 209.66 394.42 211.7 394.42 211.7 424.42 210.28 424.42 210.28 427.92 211.7 427.92 211.7 433.17 210.28 433.17 210.28 436.79 211.7 436.79 211.7 447.79 206.53 447.79 206.53 451.04 215.78 451.04 215.78 440.67 216.78 440.67 216.78 436.54 215.53 436.54 214.41 436.54 214.28 428.29 215.53 428.29 215.53 423.42 214.28 423.42 214.28 395.17 215.28 395.04 215.28 390.42 214.28 390.42 214.28 371.5 204.37 371.5"/><polygon class="cls-12" points="185.03 371.5 185.03 375.54 191.91 375.54 192.7 375.35 192.7 410.2 191.37 410.2 191.37 415.58 193.12 415.58 193.12 449.08 186.03 449.08 186.03 451.5 199.95 451.5 199.95 448.75 195.87 448.75 195.87 415.58 196.95 415.58 196.95 410.2 195.87 410.2 195.87 392.5 196.95 392.5 196.95 387.5 195.7 387.5 195.7 375.08 199.37 375.08 199.37 371.5 185.03 371.5"/><polygon class="cls-12" points="165.28 373.17 165.28 376.29 172.78 376.29 172.78 449.04 168.03 449.04 168.03 452.29 180.66 452.29 180.66 449.17 177.16 449.17 177.16 395.79 178.16 395.79 178.16 383.79 175.78 383.79 175.78 376.54 179.16 376.54 179.16 373.17 165.28 373.17"/><polygon class="cls-12" points="147.66 375.35 147.66 377.67 154.53 377.67 155.41 377.67 155.41 450.42 149.78 450.42 149.78 453.42 160.91 453.42 160.91 450.67 158.66 450.67 158.66 436.79 159.91 436.79 159.91 432.92 158.66 432.92 158.66 402.17 159.66 402.17 159.66 400.17 158.16 400.17 158.16 377.54 162.16 377.54 162.16 375.35 147.66 375.35"/><polygon class="cls-12" points="129.53 376.42 129.53 379.79 135.78 379.79 137.16 379.79 137.16 448.42 130.41 448.42 130.41 451.5 137.91 451.5 137.91 453.42 143.41 453.42 143.41 451.04 140.66 451.04 140.66 379.04 143.41 379.04 143.41 376.42 129.53 376.42"/><polygon class="cls-12" points="124.91 380.42 124.91 446.29 121.03 446.29 121.03 442.67 115.41 435.17 115.41 433.29 121.28 432.92 121.41 402.29 115.41 402.04 122.03 381.17 122.41 380.42 124.91 380.42"/><polygon class="cls-12" points="111.16 436.42 117.53 446.29 117.53 450.04 109.53 450.04 109.53 436.42 111.16 436.42"/><path class="cls-12" d="M110.28,414.38v11.41h-2.5a8.45,8.45,0,0,0-4.45-4c-3.43-1.5-15.8-2.5-15.8-2.5v-4.37Z"/><path class="cls-12" d="M95.66,424.42,92.78,439l-6.62,21.63v1.5h34.75v-3.75l4,.13s3.38,15.63,3.25,17.75-.88,2.38-.88,2.38h-2.87l-.75-6.5-46,1.17,3.87,72.58H73.36l-2.83-74.75-11.42-8.25v-3.25l15.42.5-2-38Z"/><path class="cls-12" d="M131.28,455.92s2.5,15.75,3,20,3.5,0,3.5,0v-5.25l8.5-.25,1.38,7.39h2.88v-8.14l44-.75v6.75l5.42-.25,4.42-8.56h11.42V455.92Z"/><polygon class="cls-12" points="84.7 487.33 84.7 489.67 93.64 489.67 93.64 513.17 89.17 513.17 89.17 516.84 93.64 516.84 93.64 534.17 88.37 534.17 88.37 537.17 105.37 537.17 105.37 534 98.53 534 96.87 533.84 96.87 489.5 101.7 489.5 101.7 486.67 84.7 486.67 84.7 487.33"/><polygon class="cls-12" points="122.37 533 122.37 488.33 126.87 488.33 126.87 484.04 121.2 484.04 121.2 485.67 109.53 485.67 109.53 488.33 117.53 488.33 117.53 533 112.7 533 112.7 535.83 129.53 535.83 129.53 532.33 122.37 533"/><polygon class="cls-12" points="133.2 483.17 133.2 486.67 140.53 486.67 140.53 499.5 134.53 499.5 134.7 503.33 140.53 503.33 141.53 503.33 141.53 530.84 137.37 530.84 137.37 533.84 152.7 533.84 152.7 530.34 146.53 530.34 146.53 508.5 148.37 508.5 148.37 504.33 144.37 504.33 144.37 486.67 148.87 486.67 148.87 484.04 148.53 483.17 133.2 483.17"/><polygon class="cls-12" points="158.03 483.17 158.03 485 158.03 486 163.7 486 165.28 486 165.28 530.17 160.37 530.17 160.37 532.67 176.37 532.67 176.37 530.34 169.53 530.34 169.53 485.33 172.97 485.33 172.97 483.17 158.03 483.17"/><polygon class="cls-12" points="180.66 481 180.66 485.33 187.37 485.33 187.37 488.5 185.87 488.5 185.87 491.83 187.37 491.83 187.37 495.5 183.2 495.5 183.2 499.17 187.37 499.17 188.7 499.17 188.7 514.3 187.2 514.3 187.2 517.34 188.7 517.34 188.7 527.5 184.03 527.5 184.03 531.67 199.95 531.67 199.95 527.5 192.49 527.5 192.49 484.04 197.2 484.04 197.2 481 180.66 481"/><polygon class="cls-12" points="204.37 479.33 204.37 484.04 211.53 484.04 213.2 484.04 213.2 526.5 208.78 526.5 208.78 530 224.53 530 224.53 526.5 218.03 526.5 216.78 526.5 216.78 482.17 220.53 482.17 220.53 479.33 204.37 479.33"/><polyline class="cls-12" points="230.2 484.04 230.2 487.17 238.03 487.17 238.03 507.92 235.53 507.92 235.53 511.67 238.03 511.67 238.03 524.67 232.53 524.67 232.53 528.5 249.37 528.5 249.37 525.34 242.03 525.34 242.03 501.17 246.2 501.17 246.2 497.17 241.03 497.17 241.03 490.5 245.87 490.5 245.87 487.67 241.53 487.67 241.53 484.83 230.7 484.83"/><polygon class="cls-12" points="91.53 542.17 91.53 545.92 96.2 545.92 101.37 635.34 112.2 635.34 112.2 632.5 104.53 632.34 100.2 551 103.7 551.17 103.87 547.67 99.87 547.67 99.87 544.67 106.53 544.67 106.53 542.17 91.53 542.17"/><polygon class="cls-12" points="113.27 541.5 113.27 544.98 121.16 544.98 125.2 632 119.53 632 119.53 635.34 135.87 635.34 135.87 630.83 129.53 631.67 124.56 545.33 130.2 545 130.03 541.5 113.27 541.5"/><polygon class="cls-12" points="137.03 540.17 137.03 543.51 144.37 543.51 149.87 629.67 144.2 629.67 144.11 632.75 158.7 632.75 158.03 630 153.37 629.17 147.87 543.34 153.7 543.34 153.7 540.17 137.03 540.17"/><polygon class="cls-12" points="158.7 539.33 158.7 542.17 167.2 542.17 172.37 628 165.53 629.17 165.53 631.5 182.2 631.5 182.2 628.5 175.37 628.5 170.45 542.17 176.37 542.17 176.37 538.5 158.7 538.5 158.7 539.33"/><polygon class="cls-12" points="184.03 535.83 184.03 540.17 191.53 540.17 196.03 627 190.3 627 190.3 629.83 207.2 629.83 207.2 626.33 199.95 626.67 194.87 540.17 201.03 540.17 201.03 537.17 200.7 535.83 184.03 535.83"/><rect class="cls-5" x="182.7" y="542.17" width="3.67" height="3.75"/><rect class="cls-5" x="198.7" y="542.17" width="3.33" height="2.83"/><polygon class="cls-12" points="208.7 535.83 208.7 539.17 216.37 539.17 216.37 541.5 214.45 541.5 214.45 545 216.37 545 220.87 625.83 214.78 625.83 214.78 628.83 231.2 628.83 231.2 625.67 224.53 625.5 219.95 538.5 225.37 538.5 225.7 535.83 208.7 535.83"/><path class="cls-12" d="M232.37,533.84v4H239l5.67,85.33,4.67.83L243,538.5S241.2,533,232.37,533.84Z"/><polygon class="cls-5" points="271.78 491.17 311.37 491.17 311.37 492.5 309.53 492.5 309.53 494.5 271.78 494.5 271.78 491.17"/><polygon class="cls-13" points="60.03 377.83 60.03 379.33 61.34 379.33 60.69 410.2 59.11 410.2 59.11 413.17 63.37 412.88 63.37 377.83 60.03 377.83"/><polygon class="cls-13" points="70.87 377.83 70.87 408.04 70.87 410.2 74.53 410.2 74.53 408.04 73.53 408.04 73.53 377.83 70.87 377.83"/><polygon class="cls-13" points="70.03 372.67 70.03 374.46 75.7 374.46 75.7 369.67 72.7 369.67 72.7 371.5 70.03 371.5 70.03 372.67"/><polygon class="cls-15" points="106.2 374.46 106.2 378.67 113.53 378.67 113.53 372.06 111.7 372.06 111.7 374.46 106.2 374.46"/><polyline class="cls-13" points="55.17 360.61 55.17 355.17 61.24 355.17 61.34 360.04"/></g><g id="Capa_12" data-name="Capa 12"><path class="cls-16" d="M171.53,242.42s-40.75,13.5-23.25,64.75c0,0,14.25,44.37,59.5,32.19s140-38.69,140-38.69l4.16-1.25s33.59-14.5,15.59-63.5c0,0-4.33-19-27.25-29.29l-1.75-9.21Z"/></g><g id="canchota"><path class="cls-6" d="M214.53,236.42,173,248.92s-32.19,11.58-18.44,55.67c0,0,14.83,34.58,39.67,30.33-2.25.28,148.58-39.25,148.58-39.25s34-8.75,21-55.75c0,0-15.75-46.67-69-24.08Z"/></g><g id="linea_cancha" data-name="linea cancha"><polygon class="cls-17" points="162.78 259.67 191.37 329.77 192.49 332.17 355.37 286.42 324.53 210.95 162.78 257.42 162.03 257.79 162.78 259.67"/><polygon class="cls-6" points="165.28 259.42 194.2 329.77 351.94 285.17 323.37 214.67 165.28 259.42"/></g><g id="Capa_13" data-name="Capa 13"><polygon class="cls-18" points="442.53 395.42 435.03 395.42 435.03 399.17 431.03 399.17 429.53 420.33 429.53 425.67 423.03 425.67 423.03 427.73 432.78 427.73 432.78 415.67 442.53 415.42 442.53 395.42"/></g><g id="azul"><polygon class="cls-7" points="628.78 143.67 627.03 211.17 658.78 212.67 658.78 191.92 660.78 190.67 660.78 143.67 628.78 143.67"/><polygon class="cls-19" points="847.53 264.67 684.03 223.42 682.28 228.42 850.03 268.92 847.53 264.67"/><polygon class="cls-5" points="605.68 66.81 562.28 86.92 564.03 88.42 605.8 68.95 605.68 66.81"/><polygon class="cls-19" points="533.53 102.17 513.78 109.42 515.53 111.67 536.53 103.67 533.53 102.17"/><path class="cls-19" d="M506.78,107.92s2,.25,2.5,5.75a110.27,110.27,0,0,1,0,13.5h2.5v-15.5s-.5-4-2.5-4.75A1.73,1.73,0,0,0,506.78,107.92Z"/><path class="cls-19" d="M506.78,132.67h2.5s.25,8,0,11-3.75,5.25-3.75,8.25,0,7,1.25,10,0,72.5,0,72.5a6.07,6.07,0,0,1,.68,7.25l-.76.33v11.25l-1.42,68.58H502l2-79.17s-6.75-4.5-.5-8.25l1.6-69.5s-4.35-15.75,1.65-20.25Z"/><path class="cls-19" d="M505.14,365.72l3.17-1.92v22.87s-11.33,13-23.3,11l-.66-2.53s16.14-.73,20.79-8.48Z"/><polygon class="cls-19" points="478.05 369.36 480.18 388.03 482.8 391.66 480.85 367.68 478.05 369.36"/><path class="cls-19" d="M475.42,418.59l5,6.53a139.7,139.7,0,0,1,3.92,13.79c1.94,8.25.44,9.25,3.44,14.25s11,15.39,11,15.39,7.5,6.61,7.5,16.36v6.75l37.25-1,23.5,36,17.25,21.75,2-2.5-16.5-21,21.5-27L584,494.67l-37.25-6-6-10.5h-3l4.5,9-32.75.25s.25-13.25-3.5-16-14.25-13.75-14.25-17.25-4.37-26.25-7.44-30.25S478.9,416,478.9,416Z"/><polyline class="cls-1" points="548.78 493.33 567.03 521.42 587.03 499.17 548.78 492.17 548.78 494.42"/><path class="cls-19" d="M462.78,418.42v4L447,423.67s-2.25,8.25-1.25,11.25,4.5,63.5,4.5,63.5l3.87,21.25,5.38,15.25,3.25,20.25-13,4.75-1-3.25,10.75-2.25s-1.75-18-2.75-19.5-7-21-7-21L437,503.42l1.5-.75,8.75,5.5-3.5-25.94-.25-54.81s-5.24-7,12.63-8.51Z"/><path class="cls-19" d="M428.53,563.67h2.25l3.5,2.5,2.75-4.5,2.5,2.25-2.5,4.72-.75.86,20.25,78.17,10,36s3,13.25-10.5,19a141.61,141.61,0,0,0-24,13.25s-49,26.75-52.25,29.75-13.75,12-13.75,12l1.25,48.25v1.25h-4V757.42l-4.75-4.5s2.25-19.25,2.5-23.75-5.5-24.75-5.75-29.25-4.25-12.5-4.25-12.5l1.5-29.75-8.25-12.5L343,633.47l-14.71-5.8V623.8l4,1.87L348,633.44l.25,11,6,10,.5,34L364,722.79s-.75,16.63-1.75,22.63,0,7.75,0,7.75l3.25,1.63s8.75-10.62,19-15.87,46.75-25.75,46.75-25.75l28-17.25s10.25-.25-6-49.5l-20.5-76.92Z"/><polygon class="cls-2" points="331.78 502.92 331.78 567.17 335.03 567.17 335.03 503.92 335.03 501.92 331.78 502.92"/><path class="cls-19" d="M258,593.42v20.75l7.5,17.25s-1,28-2.5,32-5.5,33-5,39,2,74.75,2,74.75l-37.25,22.75s-6-9.5-7.24-10.75-38-4-41.26-2.5-12,3-13.5,2-22.25-9.67-29.5-9.83-20.25-14.17-24-21.92-9-17-11-18,0-12.75,0-12.75l11.5-10.75s-1-16,2.75-22.75-12.78-22-15.14-23.75a27.53,27.53,0,0,1-4.61-4.75v-7.25l-4-.5L88,666.92s18.75,16.5,18.75,21.25a32.92,32.92,0,0,1-2,10.25c-.5,1.75-.75,14.75-.75,14.75s-7.25,6.75-8.5,9.63-3.25,13.88-3.25,13.88l2,3.25s11.5,21.17,15,25.58,10,11.92,18.5,14.92,13.5,1.5,25.75,8.5,13.75,1,24,.5,35.25,2.75,35.25,2.75l5.82,7.75s1.18,3.75,2.43,8.5a13.41,13.41,0,0,0,4.25,7H227s-5.5-13-4.25-13.25S263,779.92,263,779.92l-1.5-77.75,6.58-50.33.66-14.91-7.24-23.5,1.5-19Z"/><path class="cls-19" d="M86.78,642.17h2.75s-6.25-19.5-7.25-30.25,0-38,0-41.5-3-22-3-22S74.4,483.67,76,480.92s4.5-17.75,7.25-25.5,9.25-29,9.25-29v-2H86.28s-6.25,26.75-6.75,29-7.25,19.92-7.25,19.92l2.25,54.83s1.25,13,1.5,15.75,4.25,15,2.75,34.25-.25,28,.5,35.75S85,638,85,638Z"/><path class="cls-19" d="M100.53,375.92l-8,34.28,2.5,1.72s7.75-31,8.25-34.5S100.53,375.92,100.53,375.92Z"/><path class="cls-19" d="M103.33,353.67l3.7,1.5s6.5-15,6.5-15.75,1.75-14.75,6-22.75,6.25-18.5,6.25-23.25,10-21.5,12.5-26.75,2.25-21.25,2.25-21.25h-3s2,13.75-.75,16.5-10.25,17.5-12,23-1.19,4.75-2.85,14-2.9,10.75-5.15,16.25-4.5,7.5-4.5,7.5l-1.5,12.75Z"/><path class="cls-7" d="M479.45,337.72s-12.09-7.88-20.42,3.78c0,0-3.67,8.67,1.17,13.83a17.9,17.9,0,0,0,19.25,4S492,347.43,479.45,337.72Z"/></g><g id="cafe"><path class="cls-20" d="M544.37,193.06h6V206h9v4.95L526,209.33,523.37,251v1.92s8.92-1.75,12.67-4.75,8-5.75,8-5.75l37.75-.25,1.75-3.25,3.75,1.5s1.75,5-12,4l-28.5.5s-12.5,7.25-14.75,8-4,1.25-4,1.25h17.5v-5.75h6v18.5H545v-7H523.37l-1.7,44.75h12.15v6H520.28v10.25h-6l4-63.93h-8.87v3.68H498.28v-5h-41v5.25H452v-6.5H440v6.75h-5.5v-8.25h-2.75v-4H435V230.83h-2v-3.91h16.25v5.75h-7.75v17.5h42.25v-11h3v11.75l31.75,2,2.19-43.75L490,208.31l-2.25.11.25-5.25,56.25,1Z"/><polygon class="cls-20" points="580.2 305.04 582.63 305.04 582.63 319.17 590.28 319.17 590.28 346.01 578.94 346.01 580.2 305.04"/><polygon class="cls-20" points="421.28 572.17 430.28 569.5 435.03 585.95 433.78 590.35 431.78 592.28 429.28 588.07 421.28 572.17"/><path class="cls-15" d="M381.87,316.92h3.33s4.25-55.5,5.17-57.25.42-4.75,17.92-4.25l10.08-.06V260l4.94.25V251.6l-4.94,0s-31.88-1.17-32.33,2.56S381.87,316.92,381.87,316.92Z"/><polygon class="cls-15" points="415.1 316.92 415.1 321.83 421.2 321.93 421.2 317.16 415.1 316.92"/><polygon class="cls-15" points="445.53 318.13 445.53 322.87 452.28 322.87 452.28 318.4 445.53 318.13"/><path class="cls-15" d="M608.21,87.23l14.49,35.94-5.92,1.25S599.89,154.83,590.21,159l-19.85,18.83c-2.44,2.31-10,11.33-13.65,12.33v1.75a48.17,48.17,0,0,0,13.65-10.25c5.92-6.62,16-13.75,20.21-18s21.7-27.75,24-33.5,4.58-4.75,8.17-4.75S624,127.5,624,127.5h4.25v-3.33l8.75-5.25v-3.5l-10,6L611.91,85.79Z"/></g><g id="Lineas"><polygon class="cls-5" points="31.96 352.73 31.96 291.33 31.96 289.42 188.28 228.84 412.87 140.17 576.48 76.17 759.37 4.67 758.93 3.37 650.28 45.67 610.7 61.42 535.28 90.42 389.81 147.67 248.28 203.33 100.78 260.92 29.78 288.42 29.78 349.93 32.47 353.26 31.96 352.73"/><polygon class="cls-5" points="692.78 154.17 705.28 186.61 765.03 162.67 752.03 134.5 692.78 154.17"/><polygon class="cls-5" points="678.03 117.67 690.78 148.92 751.28 127.5 737.78 96.92 678.03 117.67"/><polyline class="cls-5" points="492.28 165.67 492.28 154.34 492.28 141.17 537.53 141.17 537.53 181.83 511.78 181.83 511.78 196.17 507.28 196.17 490.03 195.29"/><polygon class="cls-15" points="488.94 438.05 506.53 436.84 506.53 434.4 490.37 434.4 488.94 438.05"/><rect class="cls-15" x="373.28" y="444.67" width="9.21" height="6.25"/><polygon class="cls-15" points="350.05 472.96 350.05 487.17 350.05 488.03 348.53 487.97 348.53 484.92 343.04 484.92 343.04 487.17 341.78 487.7 341.78 473.5 343.04 473.5 343.04 475.5 348.28 475.5 348.53 472.96 350.05 472.96"/><polygon class="cls-5" points="343.04 477.41 343.04 483.17 348.28 483.17 348.28 477.83 343.04 477.41"/><polygon class="cls-5" points="418.86 553.33 422.78 553.33 422.78 561.67 422.78 563.67 428.53 563.67 429.68 565.24 423.28 565.24 422.93 571.68 422.53 604.67 411.09 604.67 411.03 602.67 416.53 602.67 420.36 602.49 421.28 555.67 418.78 555.17 418.86 553.33"/><polygon class="cls-5" points="426.24 493.33 420.36 493.33 420.36 496.92 412.53 496.92 412.53 498.42 420.36 498.42 422.28 498.42 422.28 495.88 426.24 495.88 426.24 493.33"/><path class="cls-15" d="M491.28,615.92v2.5l-19,3s6.5,27.68,8,31.84,39.51,143.28,39.51,143.28l-2.29.14L469,620.67v-1.5Z"/><polygon class="cls-15" points="330.33 770.67 265.53 773.67 264.02 683.13 270.03 660.42 271.53 653.26 274.28 646.33 274.53 635.34 287.78 618.17 328.28 623.8 327.03 626.92 288.28 620.67 277.66 636.17 276.53 646.33 266.53 682.17 267.28 770.42 330.33 768.17 330.33 770.67"/><polygon class="cls-15" points="66.03 658.17 66.03 664.42 77.03 664.42 77.03 658.17 81.53 658.17 82.41 656.54 86.78 656.42 162.41 653.29 183.03 652.54 185.78 651.29 187.78 651.29 192.78 654.04 196.78 656.92 199.16 657.86 261.78 654.92 263.03 652.04 263.03 635.42 262.53 628.83 259.78 628.83 260.16 652.54 200.03 655.79 188.16 649.79 185.41 649.29 182.2 650.42 80.53 655.42 79.28 656.92 75.16 657.42 66.03 657.17 66.03 658.17"/><polygon class="cls-15" points="35.88 685.65 33.99 784.37 34.15 790.67 34.93 788 38.77 680.12 35.88 685.65"/><polygon class="cls-15" points="254.28 489.17 254.28 481 229.48 458.5 228.66 454.92 256.03 480.29 256.03 492.5 254.28 492.5 254.28 489.17"/><polygon class="cls-15" points="128.16 373.17 115.41 374.46 96.87 412.88 98.91 413.17 116.03 376.42 125.87 374.85 128.16 373.17"/><polygon class="cls-6" points="165.28 258.92 194.2 329.77 355.2 284.19 324.53 212.75 165.28 258.92"/><path class="cls-5" d="M167.37,251.34s-23.58,14.08-12.46,53.7c0,0,8,28.92,37.13,30.07l157.21-42.73s29.62-16,9.87-57.71c0,0-16-33.18-43.68-25.31S167.37,251.34,167.37,251.34Z"/><polygon class="cls-15" points="382.49 453.92 376.2 453.92 376.2 458.5 374.7 458.5 374.7 472.96 379.7 477.41 380.2 487.17 379.7 488.03 378.78 489.17 378.78 491.17 382.49 491.17 382.49 483.17 388.37 483.17 388.37 489.17 388.37 492.17 412.03 492.17 415.14 488.03 413.03 487.17 410.28 489.17 391.03 489.17 391.03 484.04 391.03 475.67 389.03 473.04 380.03 473.04 380.03 460 384.38 460 382.49 453.92"/><rect class="cls-5" x="382.49" y="476.33" width="5.54" height="4.67"/></g></svg>